<?xml version="1.0" encoding="UTF-8"?><svg id="Layer_2" xmlns="http://www.w3.org/2000/svg" xmlns:xlink="http://www.w3.org/1999/xlink" viewBox="0 0 180 180"><defs><style>.cls-1{fill:url(#New_Gradient_Swatch_2);}.cls-2{clip-path:url(#clippath);}.cls-3{fill:none;}</style><clipPath id="clippath"><rect class="cls-3" width="180" height="180"/></clipPath><linearGradient id="New_Gradient_Swatch_2" x1="30" y1="90" x2="150" y2="90" gradientUnits="userSpaceOnUse"><stop offset="0" stop-color="#020b0f"/><stop offset="1" stop-color="#00273f"/></linearGradient></defs><g id="Layer_1-2"><g class="cls-2"><path class="cls-1" d="m120,84h18c6.63,0,12-5.37,12-12v-24c0-6.63-5.37-12-12-12h-18c-6.63,0-12,5.37-12,12v6h-35.94v-6c0-6.63-5.37-12-12-12h-18.06c-6.6,0-12,5.4-12,12v24c0,6.63,5.37,12,12,12h18c6.63,0,12-5.37,12-12v-6h12v42.06c0,9.9,8.04,17.94,17.94,17.94h6.06v6c0,6.63,5.37,12,12,12h18c6.63,0,12-5.37,12-12v-24c0-6.63-5.37-12-12-12h-18c-6.63,0-12,5.37-12,12v6h-6.06c-3.24,0-5.94-2.7-5.94-5.94v-42.06h12v6c0,6.6,5.4,12,12,12Z"/></g></g></svg>