<svg width="200" height="200" viewBox="0 0 200 200" fill="none" xmlns="http://www.w3.org/2000/svg">
<circle cx="99.5" cy="100.5" r="73.5" fill="url(#paint0_linear_353_129)"/>
<path d="M84.4444 123.4C86.5833 123.4 88.3333 121.645 88.3333 119.5V80.5C88.3333 78.355 86.5833 76.6 84.4444 76.6C82.3056 76.6 80.5556 78.355 80.5556 80.5V119.5C80.5556 121.645 82.3056 123.4 84.4444 123.4ZM100 139C102.139 139 103.889 137.245 103.889 135.1V64.9C103.889 62.755 102.139 61 100 61C97.8611 61 96.1111 62.755 96.1111 64.9V135.1C96.1111 137.245 97.8611 139 100 139ZM68.8889 107.8C71.0278 107.8 72.7778 106.045 72.7778 103.9V96.1C72.7778 93.955 71.0278 92.2 68.8889 92.2C66.75 92.2 65 93.955 65 96.1V103.9C65 106.045 66.75 107.8 68.8889 107.8ZM115.556 123.4C117.694 123.4 119.444 121.645 119.444 119.5V80.5C119.444 78.355 117.694 76.6 115.556 76.6C113.417 76.6 111.667 78.355 111.667 80.5V119.5C111.667 121.645 113.417 123.4 115.556 123.4ZM127.222 96.1V103.9C127.222 106.045 128.972 107.8 131.111 107.8C133.25 107.8 135 106.045 135 103.9V96.1C135 93.955 133.25 92.2 131.111 92.2C128.972 92.2 127.222 93.955 127.222 96.1Z" fill="white"/>
<defs>
<linearGradient id="paint0_linear_353_129" x1="26" y1="169.166" x2="173" y2="31.8338" gradientUnits="userSpaceOnUse">
<stop stop-color="#020B0F"/>
<stop offset="0.44715" stop-color="#0A484E"/>
<stop offset="1" stop-color="#09E1C0"/>
</linearGradient>
</defs>
</svg>
