<?xml version="1.0" encoding="UTF-8"?><svg id="Layer_2" xmlns="http://www.w3.org/2000/svg" xmlns:xlink="http://www.w3.org/1999/xlink" viewBox="0 0 180 180"><defs><style>.cls-1{fill:url(#New_Gradient_Swatch_2);}.cls-2{clip-path:url(#clippath);}.cls-3{fill:none;}</style><clipPath id="clippath"><rect class="cls-3" width="180" height="180"/></clipPath><linearGradient id="New_Gradient_Swatch_2" x1="30" y1="90" x2="150" y2="90" gradientUnits="userSpaceOnUse"><stop offset="0" stop-color="#020b0f"/><stop offset="1" stop-color="#00273f"/></linearGradient></defs><g id="Layer_1-2"><g class="cls-2"><path class="cls-1" d="m33.67,60h22.67c2.03,0,3.67-1.64,3.67-3.67v-22.67c0-2.03-1.64-3.67-3.67-3.67h-22.67c-2.03,0-3.67,1.64-3.67,3.67v22.67c0,2.03,1.64,3.67,3.67,3.67Zm45,90h22.67c2.03,0,3.67-1.64,3.67-3.67v-22.67c0-2.03-1.64-3.67-3.67-3.67h-22.67c-2.03,0-3.67,1.64-3.67,3.67v22.67c0,2.03,1.64,3.67,3.67,3.67Zm-45,0h22.67c2.03,0,3.67-1.64,3.67-3.67v-22.67c0-2.03-1.64-3.67-3.67-3.67h-22.67c-2.03,0-3.67,1.64-3.67,3.67v22.67c0,2.03,1.64,3.67,3.67,3.67Zm0-45h22.67c2.03,0,3.67-1.64,3.67-3.67v-22.67c0-2.03-1.64-3.67-3.67-3.67h-22.67c-2.03,0-3.67,1.64-3.67,3.67v22.67c0,2.03,1.64,3.67,3.67,3.67Zm45,0h22.67c2.03,0,3.67-1.64,3.67-3.67v-22.67c0-2.03-1.64-3.67-3.67-3.67h-22.67c-2.03,0-3.67,1.64-3.67,3.67v22.67c0,2.03,1.64,3.67,3.67,3.67Zm41.33-71.33v22.67c0,2.03,1.64,3.67,3.67,3.67h22.67c2.03,0,3.67-1.64,3.67-3.67v-22.67c0-2.03-1.64-3.67-3.67-3.67h-22.67c-2.03,0-3.67,1.64-3.67,3.67Zm-41.33,26.33h22.67c2.03,0,3.67-1.64,3.67-3.67v-22.67c0-2.03-1.64-3.67-3.67-3.67h-22.67c-2.03,0-3.67,1.64-3.67,3.67v22.67c0,2.03,1.64,3.67,3.67,3.67Zm45,45h22.67c2.03,0,3.67-1.64,3.67-3.67v-22.67c0-2.03-1.64-3.67-3.67-3.67h-22.67c-2.03,0-3.67,1.64-3.67,3.67v22.67c0,2.03,1.64,3.67,3.67,3.67Zm0,45h22.67c2.03,0,3.67-1.64,3.67-3.67v-22.67c0-2.03-1.64-3.67-3.67-3.67h-22.67c-2.03,0-3.67,1.64-3.67,3.67v22.67c0,2.03,1.64,3.67,3.67,3.67Z"/></g></g></svg>