<?xml version="1.0" encoding="UTF-8"?><svg id="Layer_2" xmlns="http://www.w3.org/2000/svg" xmlns:xlink="http://www.w3.org/1999/xlink" viewBox="0 0 180 180"><defs><style>.cls-1{fill:#00273f;}.cls-2{fill:none;}.cls-3{fill:url(#linear-gradient);}</style><linearGradient id="linear-gradient" x1="56.27" y1="142" x2="56.27" y2="105.48" gradientUnits="userSpaceOnUse"><stop offset=".02" stop-color="#09e1c0"/><stop offset=".18" stop-color="#06beaf"/><stop offset=".41" stop-color="#03959d"/><stop offset=".62" stop-color="#01778f"/><stop offset=".79" stop-color="#006586"/><stop offset=".92" stop-color="#005f84"/></linearGradient></defs><g id="Layer_1-2"><g><g><ellipse class="cls-2" cx="106.89" cy="73.14" rx="10.78" ry="10.78" transform="translate(33.6 179.94) rotate(-89.92)"/><path class="cls-1" d="m44.13,85.38l12.19,5.23c.7-1.67,8.25-19.4,19.25-31.74l-7.12-1.46c-3.56-.7-7.22.43-9.76,2.96l-16.23,16.22c-2.7,2.69-1.83,7.28,1.67,8.78Z"/><path class="cls-3" d="m61.55,105.8c-5.3-1.06-10.79.6-14.61,4.42-4.21,4.15-7.22,17.03-8.84,25.38-.7,3.72,2.59,7.01,6.31,6.3,8.36-1.62,21.24-4.69,25.39-8.84,3.82-3.82,5.48-9.3,4.42-14.6-1.19-6.31-6.36-11.48-12.67-12.66Z"/><path class="cls-1" d="m121.18,104.45h0c-12.35,10.99-30.09,18.54-31.76,19.24l5.23,12.18c1.51,3.5,6.09,4.36,8.79,1.67l16.23-16.22c2.53-2.53,3.67-6.2,2.97-9.75l-1.46-7.11Z"/><path class="cls-1" d="m118,96.26c24.75-24.74,24.96-44.89,23.51-53.51-.39-2.17-2.09-3.87-4.26-4.26-8.63-1.46-28.79-1.24-53.54,23.5-8.68,8.68-15.47,22.09-18.44,28.35-.97,2.05-.49,4.47,1.08,6.04l17.25,17.24c1.62,1.62,3.99,2.05,6.04,1.08,6.25-2.91,19.68-9.75,28.36-18.43Zm-11.11-33.9c5.93,0,10.78,4.85,10.78,10.78s-4.85,10.78-10.78,10.78-10.78-4.85-10.78-10.78,4.85-10.78,10.78-10.78Z"/></g><rect class="cls-2" width="180" height="180"/></g></g></svg>