<?xml version="1.0" encoding="UTF-8"?><svg id="Layer_2" xmlns="http://www.w3.org/2000/svg" xmlns:xlink="http://www.w3.org/1999/xlink" viewBox="0 0 180 180"><defs><style>.cls-1{fill:url(#New_Gradient_Swatch_3);}.cls-2{clip-path:url(#clippath);}.cls-3{fill:none;}</style><clipPath id="clippath"><rect class="cls-3" width="180" height="180"/></clipPath><linearGradient id="New_Gradient_Swatch_3" x1="22" y1="90" x2="158" y2="90" gradientUnits="userSpaceOnUse"><stop offset="0" stop-color="#00273f"/><stop offset=".61" stop-color="#005f84"/><stop offset=".74" stop-color="#028796"/><stop offset="1" stop-color="#09e1c0"/></linearGradient></defs><g id="Layer_1-2"><g class="cls-2"><path class="cls-1" d="m114.73,83.82c10.26,0,18.48-8.28,18.48-18.55s-8.22-18.55-18.48-18.55-18.55,8.28-18.55,18.55,8.28,18.55,18.55,18.55Zm-49.45,0c10.26,0,18.48-8.28,18.48-18.55s-8.22-18.55-18.48-18.55-18.55,8.28-18.55,18.55,8.28,18.55,18.55,18.55Zm0,12.36c-14.4,0-43.27,7.23-43.27,21.64v9.27c0,3.4,2.78,6.18,6.18,6.18h74.18c3.4,0,6.18-2.78,6.18-6.18v-9.27c0-14.4-28.87-21.64-43.27-21.64Zm49.45,0c-1.79,0-3.83.12-6,.31.12.06.19.19.25.25,7.05,5.13,11.93,11.99,11.93,21.08v9.27c0,2.16-.43,4.27-1.11,6.18h32.02c3.4,0,6.18-2.78,6.18-6.18v-9.27c0-14.4-28.87-21.64-43.27-21.64Z"/></g></g></svg>