<?xml version="1.0" encoding="UTF-8"?><svg id="Layer_2" xmlns="http://www.w3.org/2000/svg" xmlns:xlink="http://www.w3.org/1999/xlink" viewBox="0 0 180 180"><defs><style>.cls-1{fill:url(#New_Gradient_Swatch_2-2);}.cls-2{fill:url(#New_Gradient_Swatch_2-4);}.cls-3{fill:url(#New_Gradient_Swatch_2);}.cls-4{fill:url(#New_Gradient_Swatch_3);}.cls-5{fill:url(#New_Gradient_Swatch_2-3);}.cls-6{clip-path:url(#clippath);}.cls-7{fill:url(#New_Gradient_Swatch_2-5);}.cls-8{fill:none;}</style><clipPath id="clippath"><rect class="cls-8" width="180" height="180"/></clipPath><linearGradient id="New_Gradient_Swatch_2" x1="96.74" y1="139.66" x2="125.72" y2="139.66" gradientUnits="userSpaceOnUse"><stop offset="0" stop-color="#020b0f"/><stop offset="1" stop-color="#00273f"/></linearGradient><linearGradient id="New_Gradient_Swatch_2-2" x1="96.74" y1="40.28" x2="125.78" y2="40.28" xlink:href="#New_Gradient_Swatch_2"/><linearGradient id="New_Gradient_Swatch_2-3" x1="130.72" y1="69.38" x2="150" y2="69.38" xlink:href="#New_Gradient_Swatch_2"/><linearGradient id="New_Gradient_Swatch_2-4" x1="30" y1="90" x2="84.61" y2="90" xlink:href="#New_Gradient_Swatch_2"/><linearGradient id="New_Gradient_Swatch_2-5" x1="130.74" y1="110.62" x2="149.98" y2="110.62" xlink:href="#New_Gradient_Swatch_2"/><linearGradient id="New_Gradient_Swatch_3" x1="90.65" y1="59.63" x2="90.65" y2="117.83" gradientUnits="userSpaceOnUse"><stop offset="0" stop-color="#00273f"/><stop offset=".61" stop-color="#005f84"/><stop offset=".74" stop-color="#028796"/><stop offset="1" stop-color="#09e1c0"/></linearGradient></defs><g id="Layer_1-2"><g class="cls-6"><g><path class="cls-3" d="m116.58,130.92c-4.61,2.97-9.77,5.16-15.35,6.37-2.67.61-4.49,3.09-4.49,5.89,0,3.88,3.58,6.86,7.34,5.95,6.8-1.58,13.17-4.25,18.87-7.89,3.28-2.06,3.7-6.67.97-9.4-1.94-1.94-5.04-2.43-7.34-.91Z"/><path class="cls-1" d="m123.02,38.7c-5.7-3.64-12.07-6.31-18.93-7.89-3.27-.71-6.49,1.36-7.2,4.63-.09.43-.14.87-.14,1.32,0,2.73,1.82,5.28,4.49,5.89,5.52,1.21,10.74,3.4,15.35,6.37,2.37,1.52,5.4,1.03,7.4-.97,2.73-2.73,2.31-7.28-.97-9.34Z"/><path class="cls-5" d="m137.94,79.41c.72,2.68,3.17,4.53,5.95,4.49,3.88,0,6.86-3.58,5.95-7.34-1.58-6.8-4.25-13.17-7.89-18.93-2.06-3.28-6.67-3.7-9.4-.97-1.94,1.94-2.43,5.04-.97,7.4,2.97,4.67,5.16,9.83,6.37,15.35Z"/><path class="cls-2" d="m80,137.29c-21.66-4.85-37.86-24.21-37.86-47.33s16.2-42.47,37.86-47.33c2.73-.61,4.61-3.09,4.61-5.89,0-.44-.04-.88-.14-1.32-.71-3.27-3.94-5.34-7.2-4.63-27.06,6.07-47.27,30.22-47.27,59.16s20.21,53.09,47.27,59.22c3.76.85,7.34-2.12,7.34-6.01,0-2.79-1.88-5.28-4.61-5.89Z"/><path class="cls-7" d="m143.89,96.16c-2.73,0-5.28,1.82-5.89,4.49-1.21,5.52-3.46,10.68-6.37,15.35-1.52,2.24-1.03,5.34.91,7.28h0c2.73,2.73,7.34,2.31,9.4-.91,3.64-5.7,6.31-12.07,7.89-18.87.85-3.76-2.12-7.34-5.95-7.34Z"/><path class="cls-8" d="m62.05,124.68h57V54.68h-57v70Zm12.91-34.71h9.65v-24.27c0-3.34,2.73-6.07,6.07-6.07s6.07,2.73,6.07,6.07v24.27h9.59c5.4,0,8.13,6.55,4.31,10.38l-15.72,15.72c-2.37,2.37-6.19,2.37-8.56,0l-15.72-15.72c-3.82-3.82-1.09-10.38,4.31-10.38Z"/><path class="cls-4" d="m86.37,116.06c2.37,2.37,6.19,2.37,8.56,0l15.72-15.72c3.82-3.82,1.09-10.38-4.31-10.38h-9.59v-24.27c0-3.34-2.73-6.07-6.07-6.07s-6.07,2.73-6.07,6.07v24.27h-9.65c-5.4,0-8.13,6.55-4.31,10.38l15.72,15.72Z"/></g></g></g></svg>