<?xml version="1.0" encoding="UTF-8"?><svg id="Layer_2" xmlns="http://www.w3.org/2000/svg" xmlns:xlink="http://www.w3.org/1999/xlink" viewBox="0 0 180 180"><defs><style>.cls-1{fill:url(#New_Gradient_Swatch_3);}.cls-2{clip-path:url(#clippath);}.cls-3{fill:none;}</style><clipPath id="clippath"><rect class="cls-3" width="180" height="180"/></clipPath><linearGradient id="New_Gradient_Swatch_3" x1="30" y1="90" x2="150" y2="90" gradientUnits="userSpaceOnUse"><stop offset="0" stop-color="#00273f"/><stop offset=".61" stop-color="#005f84"/><stop offset=".74" stop-color="#028796"/><stop offset="1" stop-color="#09e1c0"/></linearGradient></defs><g id="Layer_1-2"><g class="cls-2"><path class="cls-1" d="m52.11,96.32c-3.47,0-6.32,2.84-6.32,6.32s2.84,6.32,6.32,6.32,6.32-2.84,6.32-6.32-2.84-6.32-6.32-6.32Zm0,25.26c-3.47,0-6.32,2.84-6.32,6.32s2.84,6.32,6.32,6.32,6.32-2.84,6.32-6.32-2.84-6.32-6.32-6.32Zm0-50.53c-3.47,0-6.32,2.84-6.32,6.32s2.84,6.32,6.32,6.32,6.32-2.84,6.32-6.32-2.84-6.32-6.32-6.32Zm-18.95,3.16c-1.77,0-3.16,1.39-3.16,3.16s1.39,3.16,3.16,3.16,3.16-1.39,3.16-3.16-1.39-3.16-3.16-3.16Zm18.95-28.42c-3.47,0-6.32,2.84-6.32,6.32s2.84,6.32,6.32,6.32,6.32-2.84,6.32-6.32-2.84-6.32-6.32-6.32Zm94.74,34.74c1.77,0,3.16-1.39,3.16-3.16s-1.39-3.16-3.16-3.16-3.16,1.39-3.16,3.16,1.39,3.16,3.16,3.16Zm-44.21-22.11c3.47,0,6.32-2.84,6.32-6.32s-2.84-6.32-6.32-6.32-6.32,2.84-6.32,6.32,2.84,6.32,6.32,6.32Zm0-22.11c1.77,0,3.16-1.39,3.16-3.16s-1.39-3.16-3.16-3.16-3.16,1.39-3.16,3.16,1.39,3.16,3.16,3.16Zm-69.47,63.16c-1.77,0-3.16,1.39-3.16,3.16s1.39,3.16,3.16,3.16,3.16-1.39,3.16-3.16-1.39-3.16-3.16-3.16Zm44.21,44.21c-1.77,0-3.16,1.39-3.16,3.16s1.39,3.16,3.16,3.16,3.16-1.39,3.16-3.16-1.39-3.16-3.16-3.16Zm0-107.37c1.77,0,3.16-1.39,3.16-3.16s-1.39-3.16-3.16-3.16-3.16,1.39-3.16,3.16,1.39,3.16,3.16,3.16Zm0,22.11c3.47,0,6.32-2.84,6.32-6.32s-2.84-6.32-6.32-6.32-6.32,2.84-6.32,6.32,2.84,6.32,6.32,6.32Zm0,34.74c-5.24,0-9.47,4.23-9.47,9.47s4.23,9.47,9.47,9.47,9.47-4.23,9.47-9.47-4.23-9.47-9.47-9.47Zm50.53,3.16c-3.47,0-6.32,2.84-6.32,6.32s2.84,6.32,6.32,6.32,6.32-2.84,6.32-6.32-2.84-6.32-6.32-6.32Zm0,25.26c-3.47,0-6.32,2.84-6.32,6.32s2.84,6.32,6.32,6.32,6.32-2.84,6.32-6.32-2.84-6.32-6.32-6.32Zm0-50.53c-3.47,0-6.32,2.84-6.32,6.32s2.84,6.32,6.32,6.32,6.32-2.84,6.32-6.32-2.84-6.32-6.32-6.32Zm0-25.26c-3.47,0-6.32,2.84-6.32,6.32s2.84,6.32,6.32,6.32,6.32-2.84,6.32-6.32-2.84-6.32-6.32-6.32Zm18.95,53.68c-1.77,0-3.16,1.39-3.16,3.16s1.39,3.16,3.16,3.16,3.16-1.39,3.16-3.16-1.39-3.16-3.16-3.16Zm-44.21,22.11c-3.47,0-6.32,2.84-6.32,6.32s2.84,6.32,6.32,6.32,6.32-2.84,6.32-6.32-2.84-6.32-6.32-6.32Zm0,22.11c-1.77,0-3.16,1.39-3.16,3.16s1.39,3.16,3.16,3.16,3.16-1.39,3.16-3.16-1.39-3.16-3.16-3.16Zm-25.26-75.79c-5.24,0-9.47,4.23-9.47,9.47s4.23,9.47,9.47,9.47,9.47-4.23,9.47-9.47-4.23-9.47-9.47-9.47Zm0,53.68c-3.47,0-6.32,2.84-6.32,6.32s2.84,6.32,6.32,6.32,6.32-2.84,6.32-6.32-2.84-6.32-6.32-6.32Zm25.26-28.42c-5.24,0-9.47,4.23-9.47,9.47s4.23,9.47,9.47,9.47,9.47-4.23,9.47-9.47-4.23-9.47-9.47-9.47Zm0-25.26c-5.24,0-9.47,4.23-9.47,9.47s4.23,9.47,9.47,9.47,9.47-4.23,9.47-9.47-4.23-9.47-9.47-9.47Z"/></g></g></svg>