<?xml version="1.0" encoding="UTF-8"?><svg id="Layer_2" xmlns="http://www.w3.org/2000/svg" xmlns:xlink="http://www.w3.org/1999/xlink" viewBox="0 0 180 180"><defs><style>.cls-1{fill:url(#New_Gradient_Swatch_2);}.cls-2{fill:url(#New_Gradient_Swatch_3);}.cls-3{clip-path:url(#clippath);}.cls-4{fill:none;}</style><clipPath id="clippath"><rect class="cls-4" width="180" height="180"/></clipPath><linearGradient id="New_Gradient_Swatch_2" x1="35.78" y1="94.16" x2="145.07" y2="94.16" gradientUnits="userSpaceOnUse"><stop offset="0" stop-color="#020b0f"/><stop offset="1" stop-color="#00273f"/></linearGradient><linearGradient id="New_Gradient_Swatch_3" x1="123.21" y1="116.02" x2="156" y2="116.02" gradientUnits="userSpaceOnUse"><stop offset="0" stop-color="#00273f"/><stop offset=".61" stop-color="#005f84"/><stop offset=".74" stop-color="#028796"/><stop offset="1" stop-color="#09e1c0"/></linearGradient></defs><g id="Layer_1-2"><g class="cls-3"><path class="cls-1" d="m145.07,83.07v-21.69c0-6.01-4.92-10.93-10.93-10.93H46.71c-6.01,0-10.87,4.92-10.87,10.93l-.05,65.58c0,6.01,4.92,10.93,10.93,10.93h65.58v-27.49c0-15.08,12.24-27.32,27.32-27.32h5.46Zm-13.12-9.4l-35.74,22.35c-3.55,2.24-8.03,2.24-11.59,0l-35.74-22.35c-2.24-1.26-3.03-4.09-1.78-6.32s4.09-3.03,6.32-1.78c.13.07.25.15.37.23l36.61,22.9,36.61-22.9c2.18-1.36,5.04-.69,6.4,1.48.46.74.7,1.59.7,2.45,0,1.58-.82,3.06-2.19,3.93Z"/><path class="cls-2" d="m150.54,110.56v-5.46c0-6.01-4.92-10.93-10.93-10.93s-10.93,4.92-10.93,10.93v5.46c-3.01,0-5.46,2.46-5.46,5.46v16.39c0,3.01,2.46,5.46,5.46,5.46h21.86c3.01,0,5.46-2.46,5.46-5.46v-16.39c0-3.01-2.46-5.46-5.46-5.46Zm-5.46,0h-10.93v-5.46c0-3.01,2.46-5.46,5.46-5.46s5.46,2.46,5.46,5.46v5.46Z"/></g></g></svg>