<svg width="200" height="200" viewBox="0 0 200 200" fill="none" xmlns="http://www.w3.org/2000/svg">
<path d="M110.444 115.667H58.2222C55.35 115.667 53 118.017 53 120.889C53 123.761 55.35 126.111 58.2222 126.111H110.444C113.317 126.111 115.667 123.761 115.667 120.889C115.667 118.017 113.317 115.667 110.444 115.667ZM110.444 73.8889H58.2222C55.35 73.8889 53 76.2389 53 79.1111C53 81.9833 55.35 84.3333 58.2222 84.3333H110.444C113.317 84.3333 115.667 81.9833 115.667 79.1111C115.667 76.2389 113.317 73.8889 110.444 73.8889ZM58.2222 105.222H141.778C144.65 105.222 147 102.872 147 100C147 97.1278 144.65 94.7778 141.778 94.7778H58.2222C55.35 94.7778 53 97.1278 53 100C53 102.872 55.35 105.222 58.2222 105.222ZM58.2222 147H141.778C144.65 147 147 144.65 147 141.778C147 138.906 144.65 136.556 141.778 136.556H58.2222C55.35 136.556 53 138.906 53 141.778C53 144.65 55.35 147 58.2222 147ZM53 58.2222C53 61.0944 55.35 63.4444 58.2222 63.4444H141.778C144.65 63.4444 147 61.0944 147 58.2222C147 55.35 144.65 53 141.778 53H58.2222C55.35 53 53 55.35 53 58.2222Z" fill="url(#paint0_linear_352_105)"/>
<defs>
<linearGradient id="paint0_linear_352_105" x1="53" y1="112.177" x2="147" y2="87.8234" gradientUnits="userSpaceOnUse">
<stop stop-color="#020B0F"/>
<stop offset="1" stop-color="#0A484E"/>
</linearGradient>
</defs>
</svg>
