<?xml version="1.0" encoding="UTF-8"?><svg id="Layer_2" xmlns="http://www.w3.org/2000/svg" xmlns:xlink="http://www.w3.org/1999/xlink" viewBox="0 0 180 180"><defs><style>.cls-1{fill:url(#New_Gradient_Swatch_2);}.cls-2{fill:none;}</style><linearGradient id="New_Gradient_Swatch_2" x1="38" y1="90" x2="142" y2="90" gradientUnits="userSpaceOnUse"><stop offset="0" stop-color="#020b0f"/><stop offset="1" stop-color="#00273f"/></linearGradient></defs><g id="Layer_1-2"><g><path class="cls-1" d="m78.68,135.76v-31.22h22.61v31.22c0,3.43,2.54,6.24,5.65,6.24h16.96c3.11,0,5.65-2.81,5.65-6.24v-43.71h9.61c2.6,0,3.84-3.56,1.87-5.43l-47.25-47.02c-2.15-2.12-5.43-2.12-7.57,0l-47.25,47.02c-1.92,1.87-.73,5.43,1.87,5.43h9.61v43.71c0,3.43,2.54,6.24,5.65,6.24h16.96c3.11,0,5.65-2.81,5.65-6.24Z"/><rect class="cls-2" width="180" height="180"/></g></g></svg>