<svg width="24" height="24" viewBox="0 0 24 24" fill="none" xmlns="http://www.w3.org/2000/svg">
<path d="M11.18 18.7598C7.75002 18.7598 4.96003 15.9699 4.96003 12.5399C4.96003 9.10986 7.75002 6.31982 11.18 6.31982C12.02 6.31982 12.83 6.48986 13.57 6.78986L14.83 5.52985C13.74 4.95985 12.5 4.62988 11.18 4.62988C6.82002 4.62988 3.28003 8.16985 3.28003 12.5298C3.28003 16.8898 6.83002 20.4299 11.18 20.4299C15.53 20.4299 19.08 16.8798 19.08 12.5298C19.08 11.2098 18.76 9.96988 18.18 8.87988L16.92 10.1498C17.23 10.8898 17.39 11.6898 17.39 12.5298C17.39 15.9598 14.6 18.7499 11.17 18.7499L11.18 18.7598Z" fill="#00273F"/>
<path d="M19.94 7.12988L19.35 7.72986C20.19 9.13986 20.67 10.7899 20.67 12.5499C20.67 17.7899 16.41 22.0399 11.18 22.0399C5.95 22.0399 1.69 17.7799 1.69 12.5499C1.69 7.31987 5.95 3.05988 11.18 3.05988C12.94 3.05988 14.59 3.53988 16 4.37988L16.59 3.78986V2.77985C14.98 1.87985 13.14 1.37988 11.18 1.37988C5.02 1.37988 0 6.39988 0 12.5599C0 18.7199 5.01 23.7399 11.18 23.7399C17.35 23.7399 22.36 18.7199 22.36 12.5599C22.36 10.5999 21.85 8.75984 20.96 7.14984H19.95L19.94 7.12988Z" fill="#00273F"/>
<path d="M23.66 2.88003C23.56 2.63003 23.31 2.45998 23.04 2.45998H21.25V0.670005C21.25 0.400005 21.09 0.150009 20.83 0.0500095C20.58 -0.0499905 20.29 -2.71201e-05 20.1 0.199973L18.26 2.04C18.13 2.17 18.06 2.33998 18.06 2.51998V4.38003L13.77 8.67C13.03 8.17 12.14 7.88003 11.18 7.88003C8.61002 7.88003 6.53003 9.96 6.53003 12.54C6.53003 15.12 8.61002 17.19 11.18 17.19C13.75 17.19 15.83 15.11 15.83 12.54C15.83 11.58 15.54 10.69 15.04 9.94002L19.33 5.64999H21.19C21.37 5.64999 21.54 5.57997 21.67 5.44997L23.51 3.61001C23.7 3.42001 23.76 3.13003 23.66 2.88003ZM13.44 11.9L11.11 14.23C10.97 14.37 10.78 14.45 10.59 14.45C10.4 14.45 10.21 14.38 10.07 14.23L8.91003 13.07C8.62003 12.78 8.62003 12.31 8.91003 12.03C9.20003 11.74 9.67003 11.74 9.95003 12.03L10.59 12.67L12.4 10.86C12.69 10.57 13.16 10.57 13.44 10.86C13.73 11.15 13.73 11.62 13.44 11.9Z" fill="url(#paint0_linear_5_1610)"/>
<defs>
<linearGradient id="paint0_linear_5_1610" x1="6.52003" y1="8.60001" x2="23.71" y2="8.60001" gradientUnits="userSpaceOnUse">
<stop stop-color="#005F84"/>
<stop offset="1" stop-color="#09E1C0"/>
</linearGradient>
</defs>
</svg>
