<svg width="39" height="48" viewBox="0 0 39 48" fill="none" xmlns="http://www.w3.org/2000/svg">
<path d="M19.4099 38.66V31.52" stroke="#00273F" stroke-width="3.4" stroke-miterlimit="10"/>
<path d="M33.95 9.66H4.83C2.16 9.66 0 7.5 0 4.83C0 2.16 2.16 0 4.83 0H33.95C36.62 0 38.78 2.16 38.78 4.83C38.78 7.5 36.62 9.66 33.95 9.66Z" fill="url(#paint0_linear_7_1629)"/>
<path d="M33.3199 5.96022H18.0599C17.4399 5.96022 16.9399 5.46022 16.9399 4.84022C16.9399 4.22022 17.4399 3.72021 18.0599 3.72021H33.3199C33.9399 3.72021 34.4399 4.22022 34.4399 4.84022C34.4399 5.46022 33.9399 5.96022 33.3199 5.96022Z" fill="white"/>
<path d="M5.66999 6.27016C6.45976 6.27016 7.09999 5.62992 7.09999 4.84016C7.09999 4.05039 6.45976 3.41016 5.66999 3.41016C4.88022 3.41016 4.23999 4.05039 4.23999 4.84016C4.23999 5.62992 4.88022 6.27016 5.66999 6.27016Z" fill="white"/>
<path d="M11.5301 6.27016C12.3199 6.27016 12.9601 5.62992 12.9601 4.84016C12.9601 4.05039 12.3199 3.41016 11.5301 3.41016C10.7403 3.41016 10.1001 4.05039 10.1001 4.84016C10.1001 5.62992 10.7403 6.27016 11.5301 6.27016Z" fill="white"/>
<path d="M33.95 22.4998H4.83C2.16 22.4998 0 20.3398 0 17.6698C0 14.9998 2.16 12.8398 4.83 12.8398H33.95C36.62 12.8398 38.78 14.9998 38.78 17.6698C38.78 20.3398 36.62 22.4998 33.95 22.4998Z" fill="url(#paint1_linear_7_1629)"/>
<path d="M33.95 22.4998H4.83C2.16 22.4998 0 20.3398 0 17.6698C0 14.9998 2.16 12.8398 4.83 12.8398H33.95C36.62 12.8398 38.78 14.9998 38.78 17.6698C38.78 20.3398 36.62 22.4998 33.95 22.4998Z" fill="url(#paint2_linear_7_1629)"/>
<path d="M33.3199 18.8001H18.0599C17.4399 18.8001 16.9399 18.3001 16.9399 17.6801C16.9399 17.0601 17.4399 16.5601 18.0599 16.5601H33.3199C33.9399 16.5601 34.4399 17.0601 34.4399 17.6801C34.4399 18.3001 33.9399 18.8001 33.3199 18.8001Z" fill="white"/>
<path d="M7.09999 17.6697C7.09999 16.8797 6.45999 16.2397 5.66999 16.2397C4.87999 16.2397 4.23999 16.8797 4.23999 17.6697C4.23999 18.4597 4.87999 19.0997 5.66999 19.0997C6.45999 19.0997 7.09999 18.4597 7.09999 17.6697Z" fill="white"/>
<path d="M12.9601 17.6697C12.9601 16.8797 12.3201 16.2397 11.5301 16.2397C10.7401 16.2397 10.1001 16.8797 10.1001 17.6697C10.1001 18.4597 10.7401 19.0997 11.5301 19.0997C12.3201 19.0997 12.9601 18.4597 12.9601 17.6697Z" fill="white"/>
<path d="M33.95 35.3299H4.83C2.16 35.3299 0 33.1699 0 30.4999C0 27.8299 2.16 25.6699 4.83 25.6699H33.95C36.62 25.6699 38.78 27.8299 38.78 30.4999C38.78 33.1699 36.62 35.3299 33.95 35.3299Z" fill="url(#paint3_linear_7_1629)"/>
<path d="M33.95 35.3299H4.83C2.16 35.3299 0 33.1699 0 30.4999C0 27.8299 2.16 25.6699 4.83 25.6699H33.95C36.62 25.6699 38.78 27.8299 38.78 30.4999C38.78 33.1699 36.62 35.3299 33.95 35.3299Z" fill="url(#paint4_linear_7_1629)"/>
<path d="M33.3199 31.6301H18.0599C17.4399 31.6301 16.9399 31.1301 16.9399 30.5101C16.9399 29.8901 17.4399 29.3901 18.0599 29.3901H33.3199C33.9399 29.3901 34.4399 29.8901 34.4399 30.5101C34.4399 31.1301 33.9399 31.6301 33.3199 31.6301Z" fill="white"/>
<path d="M5.66999 31.9298C6.45976 31.9298 7.09999 31.2896 7.09999 30.4998C7.09999 29.7101 6.45976 29.0698 5.66999 29.0698C4.88022 29.0698 4.23999 29.7101 4.23999 30.4998C4.23999 31.2896 4.88022 31.9298 5.66999 31.9298Z" fill="white"/>
<path d="M11.5301 31.9298C12.3199 31.9298 12.9601 31.2896 12.9601 30.4998C12.9601 29.7101 12.3199 29.0698 11.5301 29.0698C10.7403 29.0698 10.1001 29.7101 10.1001 30.4998C10.1001 31.2896 10.7403 31.9298 11.5301 31.9298Z" fill="white"/>
<path d="M23.6799 42.2598H38.2899" stroke="#00273F" stroke-width="3.4" stroke-miterlimit="10"/>
<path d="M15.1 42.2598H0.48999" stroke="#00273F" stroke-width="3.4" stroke-miterlimit="10"/>
<path d="M19.3899 45.4698C21.1628 45.4698 22.5999 44.0326 22.5999 42.2598C22.5999 40.487 21.1628 39.0498 19.3899 39.0498C17.6171 39.0498 16.1799 40.487 16.1799 42.2598C16.1799 44.0326 17.6171 45.4698 19.3899 45.4698Z" stroke="#00273F" stroke-width="3.4" stroke-miterlimit="10"/>
<defs>
<linearGradient id="paint0_linear_7_1629" x1="0" y1="4.84" x2="38.78" y2="4.84" gradientUnits="userSpaceOnUse">
<stop stop-color="#005F84"/>
<stop offset="1" stop-color="#09E1C0"/>
</linearGradient>
<linearGradient id="paint1_linear_7_1629" x1="-20.61" y1="17.6698" x2="-19.61" y2="17.6698" gradientUnits="userSpaceOnUse">
<stop stop-color="#005F84"/>
<stop offset="1" stop-color="#09E1C0"/>
</linearGradient>
<linearGradient id="paint2_linear_7_1629" x1="0" y1="17.6798" x2="38.78" y2="17.6798" gradientUnits="userSpaceOnUse">
<stop stop-color="#005F84"/>
<stop offset="1" stop-color="#09E1C0"/>
</linearGradient>
<linearGradient id="paint3_linear_7_1629" x1="-20.61" y1="30.4999" x2="-19.61" y2="30.4999" gradientUnits="userSpaceOnUse">
<stop stop-color="#005F84"/>
<stop offset="1" stop-color="#09E1C0"/>
</linearGradient>
<linearGradient id="paint4_linear_7_1629" x1="0" y1="30.5099" x2="38.78" y2="30.5099" gradientUnits="userSpaceOnUse">
<stop stop-color="#005F84"/>
<stop offset="1" stop-color="#09E1C0"/>
</linearGradient>
</defs>
</svg>
