<svg width="24" height="27" viewBox="0 0 24 27" fill="none" xmlns="http://www.w3.org/2000/svg">
<path d="M18.6301 16.4097C18.4601 16.5997 18.3101 16.8097 18.1801 17.0397C18.0601 17.2597 17.9601 17.4797 17.8801 17.7097L12.7201 14.7297V20.6797C12.4801 20.6297 12.2401 20.6097 11.9901 20.6097C11.7401 20.6097 11.4901 20.6297 11.2601 20.6797V14.7297L6.10009 17.7097C6.02009 17.4797 5.92009 17.2497 5.80009 17.0397C5.68009 16.8197 5.53009 16.6197 5.37009 16.4297L10.5301 13.4497L5.34009 10.4897C5.51009 10.2997 5.66009 10.0897 5.79009 9.85974C5.91009 9.63974 6.01009 9.4197 6.09009 9.1897L11.2601 12.1697V6.21973C11.5001 6.26973 11.7401 6.28967 11.9901 6.28967C12.2401 6.28967 12.4901 6.26973 12.7201 6.21973V12.1697L17.8801 9.1897C17.9601 9.4197 18.0601 9.64974 18.1801 9.85974C18.3001 10.0697 18.4401 10.2697 18.6001 10.4497L13.4501 13.4397L18.6301 16.3997V16.4097Z" fill="#00273F"/>
<path d="M18.6899 5.45972C18.3499 5.81972 18.0999 6.2397 17.9299 6.6897L14.8699 4.92969C15.1799 4.54969 15.4199 4.11965 15.5599 3.63965L18.6899 5.45972Z" fill="#00273F"/>
<path d="M22.24 11.6494V15.2594C21.97 15.1994 21.69 15.1694 21.41 15.1694C21.19 15.1694 20.98 15.1895 20.77 15.2295V11.6895C20.98 11.7295 21.2 11.7495 21.42 11.7495C21.7 11.7495 21.97 11.7194 22.24 11.6594V11.6494Z" fill="#00273F"/>
<path d="M9.12003 4.9397L6.05003 6.73975C5.88003 6.26975 5.62003 5.83972 5.28003 5.45972L8.42003 3.63965C8.57003 4.11965 8.81003 4.5597 9.12003 4.9397Z" fill="#00273F"/>
<path d="M9.10003 21.97C8.79003 22.35 8.55003 22.7799 8.41003 23.2599L5.28003 21.4399C5.62003 21.0799 5.87003 20.66 6.04003 20.21L9.10003 21.97Z" fill="#00273F"/>
<path d="M3.18998 11.6797V15.2197C2.97998 15.1797 2.75999 15.1597 2.53999 15.1597C2.25999 15.1597 1.98998 15.1898 1.72998 15.2498V11.6396C1.99998 11.6996 2.27998 11.7297 2.55998 11.7297C2.77998 11.7297 2.98998 11.7097 3.19998 11.6797H3.18998Z" fill="#00273F"/>
<path d="M18.6799 21.4297L15.5499 23.2498C15.3999 22.7698 15.1699 22.3397 14.8599 21.9697L17.9099 20.1597C18.0799 20.6297 18.3399 21.0697 18.6799 21.4397V21.4297Z" fill="#00273F"/>
<path d="M11.9799 5.09998C13.3899 5.09998 14.5199 3.94994 14.5199 2.55994C14.5199 1.16994 13.3899 0 11.9799 0C10.5699 0 9.43994 1.14992 9.43994 2.53992C9.43994 3.92992 10.5699 5.09998 11.9799 5.09998Z" fill="url(#paint0_linear_5_1595)"/>
<path d="M11.9799 21.7998C10.5699 21.7998 9.43994 22.9498 9.43994 24.3398C9.43994 25.7298 10.5899 26.8798 11.9799 26.8798C13.3699 26.8798 14.5199 25.7298 14.5199 24.3398C14.5199 22.9498 13.3899 21.7998 11.9799 21.7998Z" fill="url(#paint1_linear_5_1595)"/>
<path d="M22.69 16.6902C21.47 16.0002 19.9201 16.4003 19.2201 17.6203C18.5201 18.8403 18.9301 20.3902 20.1501 21.0902C21.3701 21.7802 22.92 21.3802 23.62 20.1602C24.31 18.9402 23.91 17.3902 22.69 16.6902Z" fill="url(#paint2_linear_5_1595)"/>
<path d="M4.74993 17.63C4.05993 16.41 2.47993 16 1.27993 16.7C0.0599334 17.39 -0.350067 18.97 0.349933 20.17C1.03993 21.39 2.61993 21.8001 3.81993 21.1001C5.03993 20.4101 5.44993 18.85 4.74993 17.63Z" fill="url(#paint3_linear_5_1595)"/>
<path d="M19.2201 9.27009C19.9101 10.4901 21.49 10.9001 22.69 10.2001C23.91 9.51014 24.32 7.93017 23.62 6.73017C22.93 5.51017 21.3501 5.10011 20.1501 5.80011C18.9301 6.49011 18.5201 8.05009 19.2201 9.27009Z" fill="url(#paint4_linear_5_1595)"/>
<path d="M1.28003 10.1998C2.50003 10.8898 4.05003 10.4898 4.74003 9.26979C5.43003 8.04979 5.03003 6.49983 3.81003 5.80983C2.59003 5.11983 1.04003 5.51988 0.350032 6.73988C-0.369968 7.92988 0.0600326 9.50985 1.28003 10.1998Z" fill="url(#paint5_linear_5_1595)"/>
<defs>
<linearGradient id="paint0_linear_5_1595" x1="9.44994" y1="2.54999" x2="14.5199" y2="2.54999" gradientUnits="userSpaceOnUse">
<stop stop-color="#005F84"/>
<stop offset="1" stop-color="#09E1C0"/>
</linearGradient>
<linearGradient id="paint1_linear_5_1595" x1="9.44994" y1="24.3398" x2="14.5199" y2="24.3398" gradientUnits="userSpaceOnUse">
<stop stop-color="#005F84"/>
<stop offset="1" stop-color="#09E1C0"/>
</linearGradient>
<linearGradient id="paint2_linear_5_1595" x1="18.8801" y1="18.8902" x2="23.96" y2="18.8902" gradientUnits="userSpaceOnUse">
<stop stop-color="#005F84"/>
<stop offset="1" stop-color="#09E1C0"/>
</linearGradient>
<linearGradient id="paint3_linear_5_1595" x1="0.00993317" y1="18.89" x2="5.07993" y2="18.89" gradientUnits="userSpaceOnUse">
<stop stop-color="#005F84"/>
<stop offset="1" stop-color="#09E1C0"/>
</linearGradient>
<linearGradient id="paint4_linear_5_1595" x1="18.8801" y1="8.01013" x2="23.96" y2="8.01013" gradientUnits="userSpaceOnUse">
<stop stop-color="#005F84"/>
<stop offset="1" stop-color="#09E1C0"/>
</linearGradient>
<linearGradient id="paint5_linear_5_1595" x1="3.23503e-05" y1="8.00984" x2="5.08003" y2="8.00984" gradientUnits="userSpaceOnUse">
<stop stop-color="#005F84"/>
<stop offset="1" stop-color="#09E1C0"/>
</linearGradient>
</defs>
</svg>
