<?xml version="1.0" encoding="UTF-8"?><svg id="Layer_2" xmlns="http://www.w3.org/2000/svg" xmlns:xlink="http://www.w3.org/1999/xlink" viewBox="0 0 80 80"><defs><style>.cls-1{fill:#00273f;}.cls-2{fill:none;}.cls-3{fill:url(#New_Gradient_Swatch_1);}</style><linearGradient id="New_Gradient_Swatch_1" x1="5" y1="40" x2="18.69" y2="40" gradientUnits="userSpaceOnUse"><stop offset="0" stop-color="#005f84"/><stop offset="1" stop-color="#09e1c0"/></linearGradient></defs><g id="Layer_1-2"><g><path class="cls-3" d="m18.69,17.21c0-3.77-3.07-6.84-6.84-6.84s-6.84,3.07-6.84,6.84c0,3.21,2.23,5.89,5.21,6.62v9.54c-2.98.74-5.21,3.42-5.21,6.62s2.23,5.89,5.21,6.62v9.54c-2.98.74-5.21,3.42-5.21,6.62,0,3.77,3.07,6.84,6.84,6.84s6.84-3.07,6.84-6.84c0-3.21-2.23-5.89-5.21-6.62v-9.54c2.98-.74,5.21-3.42,5.21-6.62s-2.23-5.89-5.21-6.62v-9.54c2.98-.74,5.21-3.42,5.21-6.62Z"/><path class="cls-1" d="m73.69,10.37h-41.01c-.28,0-.56.09-.79.26l-7.36,5.54c-.33.25-.52.63-.52,1.05s.19.8.52,1.05l7.36,5.54c.23.17.5.26.79.26h41.01c.72,0,1.31-.59,1.31-1.31v-11.07c0-.72-.59-1.31-1.31-1.31Z"/><path class="cls-1" d="m73.69,32.86h-41.01c-.28,0-.56.09-.79.26l-7.36,5.54c-.33.25-.52.63-.52,1.05s.19.8.52,1.05l7.36,5.54c.23.17.5.26.79.26h41.01c.72,0,1.31-.59,1.31-1.31v-11.07c0-.72-.59-1.31-1.31-1.31Z"/><path class="cls-1" d="m73.69,55.94h-41.01c-.28,0-.56.09-.79.26l-7.36,5.54c-.33.25-.52.63-.52,1.05s.19.8.52,1.05l7.36,5.54c.23.17.5.26.79.26h41.01c.72,0,1.31-.59,1.31-1.31v-11.07c0-.72-.59-1.31-1.31-1.31Z"/></g><rect class="cls-2" width="80" height="80"/></g></svg>