<svg width="33" height="32" viewBox="0 0 33 32" fill="none" xmlns="http://www.w3.org/2000/svg">
<path d="M10.9601 24.6999C9.95008 24.6999 9.02009 24.2999 8.34009 23.6599C9.13009 22.9899 9.65009 22.0099 9.65009 20.8899C9.65009 19.7699 9.1101 18.7399 8.2901 18.0799C8.9801 17.3999 9.93009 16.9899 10.9701 16.9899H21.0901C23.0801 16.9899 24.8301 16.0199 25.9301 14.5299C25.9701 14.5299 26.0001 14.5399 26.0401 14.5399C28.0401 14.5399 29.6701 12.9099 29.6701 10.9099C29.6701 8.90993 28.0401 7.27992 26.0401 7.27992C25.9801 7.27992 25.9301 7.28993 25.8701 7.29993C24.7701 5.85993 23.0401 4.91992 21.0901 4.91992H14.1301C14.1801 5.27992 14.2001 5.63993 14.2001 6.00993C14.2001 6.37993 14.1801 6.73993 14.1301 7.09993H21.0901C22.1001 7.09993 23.0301 7.49992 23.7101 8.13992C22.9201 8.80992 22.4001 9.78993 22.4001 10.9099C22.4001 12.0299 22.9401 13.0599 23.7601 13.7199C23.0701 14.3899 22.1201 14.8099 21.0801 14.8099H10.9601C8.97008 14.8099 7.21012 15.7899 6.12012 17.2799C6.09012 17.2799 6.05008 17.2699 6.02008 17.2699C4.02008 17.2699 2.39014 18.8999 2.39014 20.8999C2.39014 22.8999 4.02008 24.5299 6.02008 24.5299C6.08008 24.5299 6.13012 24.5199 6.19012 24.5099C7.29012 25.9499 9.02009 26.8799 10.9701 26.8799H17.9301C17.8801 26.5199 17.8601 26.1599 17.8601 25.7899C17.8601 25.4199 17.8801 25.0599 17.9301 24.6999H10.9701H10.9601ZM27.4801 10.9099C27.4801 11.7099 26.8301 12.3599 26.0301 12.3599C25.2301 12.3599 24.5801 11.7099 24.5801 10.9099C24.5801 10.1099 25.2301 9.45993 26.0301 9.45993C26.8301 9.45993 27.4801 10.1099 27.4801 10.9099ZM4.56012 20.8999C4.56012 20.0999 5.21013 19.4499 6.01013 19.4499C6.81013 19.4499 7.46008 20.0999 7.46008 20.8999C7.46008 21.6999 6.81013 22.3499 6.01013 22.3499C5.21013 22.3499 4.56012 21.6999 4.56012 20.8999Z" fill="#CCCCCC"/>
<path d="M12.02 6.01001C12.02 2.70001 9.33001 0 6.01001 0C2.69001 0 0 2.69001 0 6.01001C0 9.33001 2.69001 12.02 6.01001 12.02C9.33001 12.02 12.02 9.33001 12.02 6.01001ZM5.73999 8.3V7H2.75C2.55 7 2.39001 6.84 2.39001 6.64V5.40001C2.39001 5.20001 2.55 5.04001 2.75 5.04001H5.73999V3.74001C5.73999 3.46001 6.05997 3.30001 6.27997 3.46001L9.48999 5.75C9.67999 5.89 9.67999 6.17 9.48999 6.31L6.27997 8.60001C6.04997 8.76001 5.73999 8.60001 5.73999 8.32001V8.3Z" fill="white"/>
<path d="M12.02 6.01001C12.02 2.70001 9.33001 0 6.01001 0C2.69001 0 0 2.69001 0 6.01001C0 9.33001 2.69001 12.02 6.01001 12.02C9.33001 12.02 12.02 9.33001 12.02 6.01001ZM5.73999 8.3V7H2.75C2.55 7 2.39001 6.84 2.39001 6.64V5.40001C2.39001 5.20001 2.55 5.04001 2.75 5.04001H5.73999V3.74001C5.73999 3.46001 6.05997 3.30001 6.27997 3.46001L9.48999 5.75C9.67999 5.89 9.67999 6.17 9.48999 6.31L6.27997 8.60001C6.04997 8.76001 5.73999 8.60001 5.73999 8.32001V8.3Z" fill="url(#paint0_linear_7_1649)"/>
<path d="M26.03 19.7798C22.72 19.7798 20.02 22.4698 20.02 25.7898C20.02 29.1098 22.71 31.7998 26.03 31.7998C29.35 31.7998 32.04 29.1098 32.04 25.7898C32.04 22.4698 29.35 19.7798 26.03 19.7798ZM28.8201 24.9098L25.8801 27.8498C25.7201 28.0098 25.5 28.0998 25.29 28.0998C25.08 28.0998 24.8601 28.0198 24.7001 27.8498L23.2401 26.3898C22.9101 26.0598 22.9101 25.5298 23.2401 25.1998C23.5701 24.8698 24.1001 24.8698 24.4301 25.1998L25.29 26.0598L27.6301 23.7198C27.9601 23.3898 28.4901 23.3898 28.8201 23.7198C29.1501 24.0498 29.1501 24.5798 28.8201 24.9098Z" fill="white"/>
<path d="M26.03 19.7798C22.72 19.7798 20.02 22.4698 20.02 25.7898C20.02 29.1098 22.71 31.7998 26.03 31.7998C29.35 31.7998 32.04 29.1098 32.04 25.7898C32.04 22.4698 29.35 19.7798 26.03 19.7798ZM28.8201 24.9098L25.8801 27.8498C25.7201 28.0098 25.5 28.0998 25.29 28.0998C25.08 28.0998 24.8601 28.0198 24.7001 27.8498L23.2401 26.3898C22.9101 26.0598 22.9101 25.5298 23.2401 25.1998C23.5701 24.8698 24.1001 24.8698 24.4301 25.1998L25.29 26.0598L27.6301 23.7198C27.9601 23.3898 28.4901 23.3898 28.8201 23.7198C29.1501 24.0498 29.1501 24.5798 28.8201 24.9098Z" fill="url(#paint1_linear_7_1649)"/>
<defs>
<linearGradient id="paint0_linear_7_1649" x1="0.00749063" y1="6.01158" x2="12.025" y2="6.01158" gradientUnits="userSpaceOnUse">
<stop stop-color="#005F84"/>
<stop offset="1" stop-color="#09E1C0"/>
</linearGradient>
<linearGradient id="paint1_linear_7_1649" x1="20.0275" y1="25.7914" x2="32.045" y2="25.7914" gradientUnits="userSpaceOnUse">
<stop stop-color="#005F84"/>
<stop offset="1" stop-color="#09E1C0"/>
</linearGradient>
</defs>
</svg>
