<svg width="36" height="36" viewBox="0 0 36 36" fill="none" xmlns="http://www.w3.org/2000/svg">
<path d="M18.78 28.5401V25.6601C18.78 25.2301 18.43 24.8801 18 24.8801C17.57 24.8801 17.22 25.2301 17.22 25.6601V28.5401C16.13 28.8801 15.33 29.8801 15.33 31.0801C15.33 32.5501 16.53 33.7501 18 33.7501C19.47 33.7501 20.67 32.5501 20.67 31.0801C20.67 29.8801 19.87 28.8801 18.78 28.5401Z" fill="#B3B3B3"/>
<path d="M18 2.25C16.53 2.25 15.33 3.45001 15.33 4.92001C15.33 6.12001 16.13 7.12001 17.22 7.46001V10.34C17.22 10.77 17.57 11.12 18 11.12C18.43 11.12 18.78 10.77 18.78 10.34V7.46001C19.87 7.12001 20.67 6.12001 20.67 4.92001C20.67 3.45001 19.47 2.25 18 2.25Z" fill="#B3B3B3"/>
<path d="M12.04 22.86L9.99997 24.9C8.98997 24.37 7.71997 24.51 6.86997 25.36C5.82997 26.4 5.82997 28.09 6.86997 29.14C7.38997 29.66 8.06998 29.92 8.75998 29.92C9.44998 29.92 10.13 29.66 10.65 29.14C11.15 28.64 11.43 27.97 11.43 27.25C11.43 26.81 11.31 26.39 11.11 26L13.15 23.96C13.45 23.66 13.45 23.16 13.15 22.86C12.85 22.56 12.35 22.56 12.05 22.86H12.04Z" fill="#B3B3B3"/>
<path d="M7.45996 18.7801H10.34C10.77 18.7801 11.12 18.4301 11.12 18.0001C11.12 17.5701 10.77 17.2201 10.34 17.2201H7.45996C7.11996 16.1301 6.12004 15.3301 4.92004 15.3301C3.45004 15.3301 2.25 16.5301 2.25 18.0001C2.25 19.4701 3.45004 20.6701 4.92004 20.6701C6.12004 20.6701 7.11996 19.8701 7.45996 18.7801Z" fill="#B3B3B3"/>
<path d="M11.1 9.99007C11.3 9.61007 11.42 9.19007 11.42 8.74007C11.42 8.03007 11.14 7.36007 10.64 6.85007C10.14 6.35007 9.47 6.07007 8.75 6.07007C8.03 6.07007 7.36999 6.35007 6.85999 6.85007C6.35999 7.35007 6.07996 8.02007 6.07996 8.74007C6.07996 9.46007 6.35999 10.1201 6.85999 10.6301C7.35999 11.1301 8.03 11.4101 8.75 11.4101C9.19 11.4101 9.61 11.2901 10 11.0901L12.04 13.1301C12.19 13.2801 12.39 13.3601 12.59 13.3601C12.79 13.3601 12.99 13.2801 13.14 13.1301C13.44 12.8301 13.44 12.3301 13.14 12.0301L11.1 9.99007Z" fill="#B3B3B3"/>
<path d="M23.4201 13.3601C23.6201 13.3601 23.82 13.2801 23.97 13.1301L26.01 11.0901C26.39 11.2901 26.81 11.4101 27.26 11.4101C27.97 11.4101 28.64 11.1301 29.15 10.6301C30.19 9.59007 30.19 7.90007 29.15 6.85007C28.65 6.35007 27.98 6.07007 27.26 6.07007C26.54 6.07007 25.88 6.35007 25.37 6.85007C24.52 7.70007 24.3801 8.97007 24.9101 9.98007L22.87 12.0201C22.57 12.3201 22.57 12.8201 22.87 13.1201C23.02 13.2701 23.2201 13.3501 23.4201 13.3501V13.3601Z" fill="#B3B3B3"/>
<path d="M31.09 15.3301C29.89 15.3301 28.89 16.1301 28.55 17.2201H25.67C25.24 17.2201 24.89 17.5701 24.89 18.0001C24.89 18.4301 25.24 18.7801 25.67 18.7801H28.55C28.89 19.8701 29.89 20.6701 31.09 20.6701C32.56 20.6701 33.76 19.4701 33.76 18.0001C33.76 16.5301 32.56 15.3301 31.09 15.3301Z" fill="#B3B3B3"/>
<path d="M27.26 24.58C26.82 24.58 26.4 24.7 26.01 24.9L23.97 22.86C23.67 22.56 23.17 22.56 22.87 22.86C22.57 23.16 22.57 23.66 22.87 23.96L24.9101 26C24.3801 27.01 24.52 28.28 25.37 29.13C25.89 29.65 26.57 29.91 27.26 29.91C27.95 29.91 28.63 29.65 29.15 29.13C29.65 28.63 29.9301 27.96 29.9301 27.24C29.9301 26.52 29.65 25.86 29.15 25.35C28.65 24.85 27.98 24.57 27.26 24.57V24.58Z" fill="#B3B3B3"/>
<path d="M18.15 12.45C15.17 12.45 12.75 14.8699 12.75 17.8499C12.75 20.8299 15.17 23.25 18.15 23.25C21.13 23.25 23.55 20.8299 23.55 17.8499C23.55 14.8699 21.13 12.45 18.15 12.45ZM18.73 20.8699V21.6C18.73 21.7 18.6501 21.7699 18.5601 21.7699H17.75C17.65 21.7699 17.58 21.69 17.58 21.6V20.8699C16.72 20.7999 16.0301 20.13 15.9301 19.28C15.9201 19.18 16 19.0799 16.1 19.0799H16.92C17 19.0799 17.07 19.1299 17.09 19.2099C17.15 19.5099 17.41 19.7299 17.73 19.7299H18.59C18.97 19.7299 19.28 19.3999 19.24 19.0099C19.21 18.6699 18.9001 18.4299 18.5601 18.4299H17.8101C16.8901 18.4299 16.06 17.7699 15.95 16.8499C15.82 15.7999 16.6 14.92 17.59 14.84V14.1099C17.59 14.0199 17.67 13.9399 17.76 13.9399H18.5701C18.6701 13.9399 18.74 14.0199 18.74 14.1099V14.84C19.6 14.91 20.29 15.5799 20.39 16.4299C20.4 16.5299 20.32 16.6299 20.22 16.6299H19.4C19.32 16.6299 19.25 16.5799 19.23 16.4999C19.17 16.1999 18.91 15.9799 18.59 15.9799H17.77C17.43 15.9799 17.12 16.22 17.08 16.56C17.04 16.95 17.35 17.28 17.73 17.28H18.52C19.44 17.28 20.27 17.9399 20.38 18.8599C20.51 19.9099 19.73 20.7899 18.74 20.8699H18.73Z" fill="white"/>
<path d="M18.15 12.45C15.17 12.45 12.75 14.8699 12.75 17.8499C12.75 20.8299 15.17 23.25 18.15 23.25C21.13 23.25 23.55 20.8299 23.55 17.8499C23.55 14.8699 21.13 12.45 18.15 12.45ZM18.73 20.8699V21.6C18.73 21.7 18.6501 21.7699 18.5601 21.7699H17.75C17.65 21.7699 17.58 21.69 17.58 21.6V20.8699C16.72 20.7999 16.0301 20.13 15.9301 19.28C15.9201 19.18 16 19.0799 16.1 19.0799H16.92C17 19.0799 17.07 19.1299 17.09 19.2099C17.15 19.5099 17.41 19.7299 17.73 19.7299H18.59C18.97 19.7299 19.28 19.3999 19.24 19.0099C19.21 18.6699 18.9001 18.4299 18.5601 18.4299H17.8101C16.8901 18.4299 16.06 17.7699 15.95 16.8499C15.82 15.7999 16.6 14.92 17.59 14.84V14.1099C17.59 14.0199 17.67 13.9399 17.76 13.9399H18.5701C18.6701 13.9399 18.74 14.0199 18.74 14.1099V14.84C19.6 14.91 20.29 15.5799 20.39 16.4299C20.4 16.5299 20.32 16.6299 20.22 16.6299H19.4C19.32 16.6299 19.25 16.5799 19.23 16.4999C19.17 16.1999 18.91 15.9799 18.59 15.9799H17.77C17.43 15.9799 17.12 16.22 17.08 16.56C17.04 16.95 17.35 17.28 17.73 17.28H18.52C19.44 17.28 20.27 17.9399 20.38 18.8599C20.51 19.9099 19.73 20.7899 18.74 20.8699H18.73Z" fill="url(#paint0_linear_7_1676)"/>
<defs>
<linearGradient id="paint0_linear_7_1676" x1="12.7567" y1="17.8514" x2="23.5545" y2="17.8514" gradientUnits="userSpaceOnUse">
<stop stop-color="#005F84"/>
<stop offset="1" stop-color="#09E1C0"/>
</linearGradient>
</defs>
</svg>
