<svg width="21" height="21" viewBox="0 0 21 21" fill="none" xmlns="http://www.w3.org/2000/svg">
<path d="M13.45 15.7098L16.37 19.6098C16.55 19.8498 16.78 20.0698 17.04 20.2198C17.94 20.7298 19.11 20.6098 19.87 19.8398C20.29 19.4198 20.52 18.8798 20.56 18.3198C20.61 17.5098 20.2 16.7298 19.53 16.2598L15.65 13.5298L13.45 15.6998V15.7098Z" fill="#808080"/>
<path d="M8.82002 16.87C13.2659 16.87 16.87 13.2659 16.87 8.82002C16.87 4.37413 13.2659 0.77002 8.82002 0.77002C4.37413 0.77002 0.77002 4.37413 0.77002 8.82002C0.77002 13.2659 4.37413 16.87 8.82002 16.87Z" stroke="#808080" stroke-width="1.53" stroke-miterlimit="10"/>
<path d="M3.30005 9.74023V10.5502C3.30005 10.6902 3.32005 10.8402 3.37005 10.9702C3.88005 12.3102 4.88005 13.4102 6.14005 14.0702V9.74023H3.30005Z" fill="#E6E6E6"/>
<path d="M7.40015 8.41992V14.5299C7.86015 14.6399 8.33015 14.7099 8.82015 14.7099C9.31015 14.7099 9.79015 14.6499 10.2401 14.5299V8.41992H7.40015Z" fill="#E6E6E6"/>
<path d="M11.5 7.1001V14.0701C12.72 13.4401 13.69 12.3901 14.22 11.1101C14.3 10.9001 14.35 10.6801 14.35 10.4601V7.1001H11.51H11.5Z" fill="#E6E6E6"/>
</svg>
