<svg width="28" height="28" viewBox="0 0 28 28" fill="none" xmlns="http://www.w3.org/2000/svg">
<path d="M7.09009 7.1499C7.09009 6.2199 7.78009 5.45996 8.63009 5.45996C9.48009 5.45996 10.1701 6.2199 10.1701 7.1499C10.1701 8.0799 9.48009 9.32996 8.63009 9.32996C7.78009 9.32996 7.09009 8.0899 7.09009 7.1499Z" fill="url(#paint0_linear_4_1542)"/>
<path d="M7.18999 9.62012L8.48999 11.3301L9.78999 9.62012L11.74 10.2601V15.3001C11.74 15.9401 11.22 16.4601 10.58 16.4601V21.8301C10.58 22.3501 10.15 22.7701 9.62999 22.7501C9.13999 22.7301 8.74999 22.3301 8.74999 21.8301V17.6801H8.23999V21.8301C8.23999 22.3201 7.83999 22.7301 7.34999 22.7501C6.82999 22.7701 6.39999 22.3501 6.39999 21.8301V16.4601C5.75999 16.4601 5.23999 15.9401 5.23999 15.3001V10.2601L7.18999 9.62012Z" fill="url(#paint1_linear_4_1542)"/>
<path d="M20.0002 7.1499C20.0002 6.2199 19.3102 5.45996 18.4602 5.45996C17.6102 5.45996 16.9202 6.2199 16.9202 7.1499C16.9202 8.0799 17.6102 9.32996 18.4602 9.32996C19.3102 9.32996 20.0002 8.0899 20.0002 7.1499Z" fill="#166168"/>
<path d="M19.9001 9.62012L18.6001 11.3301L17.3001 9.62012L15.3501 10.2601V15.3001C15.3501 15.9401 15.8701 16.4601 16.5101 16.4601V21.8301C16.5101 22.3501 16.9401 22.7701 17.4601 22.7501C17.9501 22.7301 18.3401 22.3301 18.3401 21.8301V17.6801H18.8501V21.8301C18.8501 22.3201 19.2501 22.7301 19.7401 22.7501C20.2601 22.7701 20.6901 22.3501 20.6901 21.8301V16.4601C21.3301 16.4601 21.8501 15.9401 21.8501 15.3001V10.2601L19.9001 9.62012Z" fill="#166168"/>
<path d="M15.1401 5.59991C15.1401 4.52991 14.3501 3.66992 13.3801 3.66992C12.4101 3.66992 11.6201 4.52991 11.6201 5.59991C11.6201 6.66991 12.4101 8.0899 13.3801 8.0899C14.3501 8.0899 15.1401 6.66991 15.1401 5.59991Z" fill="#00273F"/>
<path d="M15.0301 8.41992L13.5401 10.3799L12.0501 8.41992L9.83008 9.1499V14.9099C9.83008 15.6399 10.4201 16.2299 11.1501 16.2299V22.3699C11.1501 22.9599 11.6401 23.4399 12.2401 23.4199C12.8001 23.3999 13.2501 22.9399 13.2501 22.3699V17.6299H13.8301V22.3699C13.8301 22.9299 14.2801 23.3999 14.8501 23.4199C15.4401 23.4399 15.9401 22.9699 15.9401 22.3699V16.2299C16.6701 16.2299 17.2601 15.6399 17.2601 14.9099V9.1499L15.0401 8.41992H15.0301Z" fill="#00273F"/>
<defs>
<linearGradient id="paint0_linear_4_1542" x1="7.09009" y1="7.38996" x2="10.1801" y2="7.38996" gradientUnits="userSpaceOnUse">
<stop stop-color="#005F84"/>
<stop offset="1" stop-color="#09E1C0"/>
</linearGradient>
<linearGradient id="paint1_linear_4_1542" x1="5.24999" y1="16.1801" x2="11.75" y2="16.1801" gradientUnits="userSpaceOnUse">
<stop stop-color="#005F84"/>
<stop offset="1" stop-color="#09E1C0"/>
</linearGradient>
</defs>
</svg>
