<?xml version="1.0" encoding="UTF-8"?><svg id="Layer_2" xmlns="http://www.w3.org/2000/svg" xmlns:xlink="http://www.w3.org/1999/xlink" viewBox="0 0 180 180"><defs><style>.cls-1{fill:url(#New_Gradient_Swatch_2);}.cls-2{clip-path:url(#clippath);}.cls-3{fill:none;}</style><clipPath id="clippath"><rect class="cls-3" width="180" height="180"/></clipPath><linearGradient id="New_Gradient_Swatch_2" x1="30" y1="90" x2="150" y2="90" gradientUnits="userSpaceOnUse"><stop offset="0" stop-color="#020b0f"/><stop offset="1" stop-color="#00273f"/></linearGradient></defs><g id="Layer_1-2"><g class="cls-2"><path class="cls-1" d="m75,90c-8.25,0-15,6.75-15,15s6.75,15,15,15,15-6.75,15-15-6.75-15-15-15Zm-30-30c-8.25,0-15,6.75-15,15s6.75,15,15,15,15-6.75,15-15-6.75-15-15-15Zm0,60c-8.25,0-15,6.75-15,15s6.75,15,15,15,15-6.75,15-15-6.75-15-15-15Zm90-60c8.25,0,15-6.75,15-15s-6.75-15-15-15-15,6.75-15,15,6.75,15,15,15Zm-30,60c-8.25,0-15,6.75-15,15s6.75,15,15,15,15-6.75,15-15-6.75-15-15-15Zm30-30c-8.25,0-15,6.75-15,15s6.75,15,15,15,15-6.75,15-15-6.75-15-15-15Zm-30-30c-8.25,0-15,6.75-15,15s6.75,15,15,15,15-6.75,15-15-6.75-15-15-15Zm-30-30c-8.25,0-15,6.75-15,15s6.75,15,15,15,15-6.75,15-15-6.75-15-15-15Z"/></g></g></svg>