<?xml version="1.0" encoding="UTF-8"?><svg id="Layer_2" xmlns="http://www.w3.org/2000/svg" xmlns:xlink="http://www.w3.org/1999/xlink" viewBox="0 0 180 180"><defs><style>.cls-1{fill:url(#New_Gradient_Swatch_2);}.cls-2{clip-path:url(#clippath);}.cls-3{fill:none;}</style><clipPath id="clippath"><rect class="cls-3" width="180" height="180"/></clipPath><linearGradient id="New_Gradient_Swatch_2" x1="41.17" y1="90" x2="138.83" y2="90" gradientUnits="userSpaceOnUse"><stop offset="0" stop-color="#020b0f"/><stop offset="1" stop-color="#00273f"/></linearGradient></defs><g id="Layer_1-2"><g class="cls-2"><path class="cls-1" d="m90,30c-25.64,0-48.83,19.65-48.83,50.05,0,19.41,14.95,42.24,44.8,68.48,2.2,1.95,5.92,1.95,8.12,0,29.79-26.25,44.74-49.07,44.74-68.48,0-30.4-23.19-50.05-48.83-50.05Zm-26.31,64.03c7.26-5.68,16.36-9.09,26.31-9.09s19.04,3.42,26.31,9.09c-5.25,9.09-15.02,15.32-26.31,15.32s-21.06-6.23-26.31-15.32Zm26.31-39.61c6.71,0,12.21,5.49,12.21,12.21s-5.49,12.21-12.21,12.21-12.21-5.49-12.21-12.21,5.49-12.21,12.21-12.21Z"/></g></g></svg>