<svg width="200" height="200" viewBox="0 0 200 200" fill="none" xmlns="http://www.w3.org/2000/svg">
<path d="M77.6152 126.651L51.1606 100.5L77.6152 74.3486C78.2436 73.7349 78.7425 73.004 79.083 72.1982C79.4235 71.3925 79.5989 70.528 79.5989 69.6548C79.5989 68.7815 79.4235 67.917 79.083 67.1113C78.7425 66.3055 78.2436 65.5746 77.6152 64.9609C76.9944 64.3397 76.255 63.8466 75.4399 63.5099C74.6248 63.1733 73.7503 63 72.8669 63C71.9836 63 71.109 63.1733 70.294 63.5099C69.4789 63.8466 68.7395 64.3397 68.1187 64.9609L36.9837 95.7389C36.3549 96.3593 35.856 97.0961 35.5156 97.9073C35.1752 98.7185 35 99.5881 35 100.466C35 101.344 35.1752 102.214 35.5156 103.025C35.856 103.836 36.3549 104.573 36.9837 105.194L68.1187 136.039C70.7641 138.654 74.9697 138.654 77.6152 136.039C78.2436 135.425 78.7425 134.694 79.083 133.888C79.4235 133.083 79.5989 132.218 79.5989 131.345C79.5989 130.472 79.4235 129.607 79.083 128.801C78.7425 127.996 78.2436 127.265 77.6152 126.651ZM122.384 126.651L148.839 100.5L122.384 74.3486C121.756 73.7349 121.257 73.004 120.917 72.1982C120.576 71.3925 120.401 70.528 120.401 69.6548C120.401 68.7815 120.576 67.917 120.917 67.1113C121.257 66.3055 121.756 65.5746 122.384 64.9609C123.005 64.3397 123.745 63.8466 124.56 63.5099C125.375 63.1733 126.249 63 127.133 63C128.016 63 128.891 63.1733 129.706 63.5099C130.521 63.8466 131.26 64.3397 131.881 64.9609L163.016 95.7389C165.661 98.3541 165.661 102.578 163.016 105.194L131.881 136.039C131.26 136.66 130.521 137.153 129.706 137.49C128.891 137.826 128.016 138 127.133 138C126.249 138 125.375 137.826 124.56 137.49C123.745 137.153 123.005 136.66 122.384 136.039C121.756 135.425 121.257 134.694 120.917 133.888C120.576 133.083 120.401 132.218 120.401 131.345C120.401 130.472 120.576 129.607 120.917 128.801C121.257 127.996 121.756 127.265 122.384 126.651Z" fill="url(#paint0_linear_352_80)"/>
<defs>
<linearGradient id="paint0_linear_352_80" x1="35" y1="118.452" x2="165.021" y2="82.6231" gradientUnits="userSpaceOnUse">
<stop stop-color="#020B0F"/>
<stop offset="1" stop-color="#0A484E"/>
</linearGradient>
</defs>
</svg>
