<?xml version="1.0" encoding="UTF-8"?><svg id="Layer_2" xmlns="http://www.w3.org/2000/svg" xmlns:xlink="http://www.w3.org/1999/xlink" viewBox="0 0 180 180"><defs><style>.cls-1{fill:url(#New_Gradient_Swatch_2-2);}.cls-2{fill:url(#New_Gradient_Swatch_2);}.cls-3{fill:url(#New_Gradient_Swatch_3-2);}.cls-4{fill:url(#New_Gradient_Swatch_3);}.cls-5{fill:url(#New_Gradient_Swatch_2-3);}.cls-6{clip-path:url(#clippath);}.cls-7{fill:none;}</style><clipPath id="clippath"><rect class="cls-7" width="180" height="180"/></clipPath><linearGradient id="New_Gradient_Swatch_2" x1="30" y1="46.98" x2="150" y2="46.98" gradientUnits="userSpaceOnUse"><stop offset="0" stop-color="#020b0f"/><stop offset="1" stop-color="#00273f"/></linearGradient><linearGradient id="New_Gradient_Swatch_2-2" y1="73.46" y2="73.46" xlink:href="#New_Gradient_Swatch_2"/><linearGradient id="New_Gradient_Swatch_3" x1="30" y1="89.53" x2="150" y2="89.53" gradientUnits="userSpaceOnUse"><stop offset="0" stop-color="#00273f"/><stop offset=".61" stop-color="#005f84"/><stop offset=".74" stop-color="#028796"/><stop offset="1" stop-color="#09e1c0"/></linearGradient><linearGradient id="New_Gradient_Swatch_3-2" y1="115.08" y2="115.08" xlink:href="#New_Gradient_Swatch_3"/><linearGradient id="New_Gradient_Swatch_2-3" y1="99.93" y2="99.93" xlink:href="#New_Gradient_Swatch_2"/></defs><g id="Layer_1-2"><g class="cls-6"><g><path class="cls-2" d="m36.62,53.6h59.56c3.64,0,6.62-2.98,6.62-6.62s-2.98-6.62-6.62-6.62h-59.56c-3.64,0-6.62,2.98-6.62,6.62s2.98,6.62,6.62,6.62Z"/><path class="cls-1" d="m36.62,80.07h59.56c3.64,0,6.62-2.98,6.62-6.62s-2.98-6.62-6.62-6.62h-59.56c-3.64,0-6.62,2.98-6.62,6.62s2.98,6.62,6.62,6.62Z"/><path class="cls-4" d="m143.37,81.13s0,0,0,0c-2.58-2.57-6.75-2.57-9.32,0l-4.7,4.7,14.03,14.03,4.7-4.7c2.58-2.58,2.58-6.75,0-9.33l-4.7-4.7Z"/><path class="cls-3" d="m124.64,90.53l-34.15,34.15c-.6.6-.93,1.39-.93,2.32v9.33c0,1.85,1.46,3.31,3.31,3.31h9.33c.86,0,1.72-.33,2.32-.99l34.15-34.15-14.03-13.96h0Z"/><path class="cls-5" d="m76.33,99.93c0-3.64-2.98-6.62-6.62-6.62h-33.09c-3.64,0-6.62,2.98-6.62,6.62s2.98,6.62,6.62,6.62h33.09c3.64,0,6.62-2.98,6.62-6.62Z"/></g></g></g></svg>