<?xml version="1.0" encoding="UTF-8"?><svg id="Layer_2" xmlns="http://www.w3.org/2000/svg" xmlns:xlink="http://www.w3.org/1999/xlink" viewBox="0 0 180 180"><defs><style>.cls-1{fill:url(#New_Gradient_Swatch_2);}.cls-2{clip-path:url(#clippath);}.cls-3{fill:none;}</style><clipPath id="clippath"><rect class="cls-3" width="180" height="180"/></clipPath><linearGradient id="New_Gradient_Swatch_2" x1="41.74" y1="90" x2="138.26" y2="90" gradientUnits="userSpaceOnUse"><stop offset="0" stop-color="#020b0f"/><stop offset="1" stop-color="#00273f"/></linearGradient></defs><g id="Layer_1-2"><g class="cls-2"><path class="cls-1" d="m106.25,57.63v53.75c0,2.96,2.42,5.38,5.38,5.38s5.38-2.42,5.38-5.38v-53.75c0-2.96-2.42-5.38-5.38-5.38s-5.38,2.42-5.38,5.38Zm-43,20.78v53.75c0,2.96,2.42,5.38,5.38,5.38s5.38-2.42,5.38-5.38v-53.75c0-2.96-2.42-5.38-5.38-5.38s-5.38,2.42-5.38,5.38Zm32.25,52.2V44.61c0-2.96-2.42-5.38-5.38-5.38s-5.38,2.42-5.38,5.38v86.01c0,2.96,2.42,5.38,5.38,5.38s5.38-2.42,5.38-5.38Zm42.76-19.23V25.38c0-2.96-2.42-5.38-5.38-5.38s-5.38,2.42-5.38,5.38v86.01c0,2.96,2.42,5.38,5.38,5.38s5.38-2.42,5.38-5.38Zm-91.14,48.62c2.96,0,5.38-2.42,5.38-5.38v-86.01c0-2.96-2.42-5.38-5.38-5.38s-5.38,2.42-5.38,5.38v86.01c0,2.96,2.42,5.38,5.38,5.38Z"/></g></g></svg>