<?xml version="1.0" encoding="UTF-8"?><svg id="Layer_2" xmlns="http://www.w3.org/2000/svg" xmlns:xlink="http://www.w3.org/1999/xlink" viewBox="0 0 180 180"><defs><style>.cls-1{fill:url(#New_Gradient_Swatch_2);}.cls-2{clip-path:url(#clippath);}.cls-3{fill:none;}</style><clipPath id="clippath"><rect class="cls-3" width="180" height="180"/></clipPath><linearGradient id="New_Gradient_Swatch_2" x1="37.53" y1="90" x2="142.47" y2="90" gradientUnits="userSpaceOnUse"><stop offset="0" stop-color="#020b0f"/><stop offset="1" stop-color="#00273f"/></linearGradient></defs><g id="Layer_1-2"><g class="cls-2"><path class="cls-1" d="m130.81,30H49.19c-6.44,0-11.66,5.22-11.66,11.66v81.62c0,6.41,5.25,11.66,11.66,11.66h23.32l13.35,13.35c2.27,2.27,5.95,2.27,8.22,0l13.41-13.35h23.32c6.41,0,11.66-5.25,11.66-11.66V41.66c0-6.41-5.25-11.66-11.66-11.66Zm-40.81,19.24c8.69,0,15.74,7.05,15.74,15.74s-7.05,15.74-15.74,15.74-15.74-7.05-15.74-15.74,7.05-15.74,15.74-15.74Zm34.98,62.38H55.02v-5.25c0-11.66,23.32-18.07,34.98-18.07s34.98,6.41,34.98,18.07v5.25Z"/></g></g></svg>