<svg width="200" height="200" viewBox="0 0 200 200" fill="none" xmlns="http://www.w3.org/2000/svg">
<circle cx="100.5" cy="100.5" r="73.5" fill="url(#paint0_linear_352_100)"/>
<path d="M121.79 122.751C123.459 124.42 126.154 124.42 127.822 122.751L147.459 103.101C147.855 102.705 148.17 102.235 148.384 101.717C148.599 101.199 148.71 100.644 148.71 100.083C148.71 99.5227 148.599 98.9676 148.384 98.4497C148.17 97.9318 147.855 97.4614 147.459 97.0653L127.822 77.416C127.427 77.0191 126.957 76.7042 126.439 76.4894C125.921 76.2746 125.367 76.164 124.806 76.164C124.246 76.164 123.691 76.2746 123.174 76.4894C122.656 76.7042 122.186 77.0191 121.79 77.416C120.165 79.0855 120.122 81.8253 121.79 83.4948L134.111 95.8239H86.3256C83.9726 95.8239 82.0475 97.7503 82.0475 100.105C82.0475 102.459 83.9726 104.386 86.3256 104.386H134.111L121.79 116.715C121.394 117.111 121.079 117.581 120.864 118.099C120.65 118.617 120.539 119.172 120.539 119.733C120.539 120.293 120.65 120.849 120.864 121.366C121.079 121.884 121.394 122.355 121.79 122.751ZM69.2135 125.79C71.5664 125.79 73.4915 123.864 73.4915 121.509V78.7002C73.4915 76.3457 71.5664 74.4193 69.2135 74.4193C66.8605 74.4193 64.9354 76.3457 64.9354 78.7002V121.509C64.9354 123.864 66.8605 125.79 69.2135 125.79Z" fill="white"/>
<defs>
<linearGradient id="paint0_linear_352_100" x1="27" y1="169.166" x2="174" y2="31.8338" gradientUnits="userSpaceOnUse">
<stop stop-color="#020B0F"/>
<stop offset="1" stop-color="#0A484E"/>
</linearGradient>
</defs>
</svg>
