<?xml version="1.0" encoding="UTF-8"?><svg id="Layer_2" xmlns="http://www.w3.org/2000/svg" xmlns:xlink="http://www.w3.org/1999/xlink" viewBox="0 0 180 180"><defs><style>.cls-1{fill:url(#New_Gradient_Swatch_2-2);}.cls-2{fill:url(#New_Gradient_Swatch_2);}.cls-3{fill:url(#New_Gradient_Swatch_3);}.cls-4{fill:none;}.cls-5{fill:url(#linear-gradient);}</style><linearGradient id="New_Gradient_Swatch_3" x1="64.74" y1="139.57" x2="82.91" y2="36.5" gradientUnits="userSpaceOnUse"><stop offset="0" stop-color="#00273f"/><stop offset=".61" stop-color="#005f84"/><stop offset=".74" stop-color="#028796"/><stop offset="1" stop-color="#09e1c0"/></linearGradient><linearGradient id="linear-gradient" x1="96.88" y1="134.17" x2="116.85" y2="134.17" gradientUnits="userSpaceOnUse"><stop offset="0" stop-color="#020b0f"/><stop offset="1" stop-color="#00273f"/></linearGradient><linearGradient id="New_Gradient_Swatch_2" x1="121.81" y1="79.63" x2="137.2" y2="79.63" gradientUnits="userSpaceOnUse"><stop offset="0" stop-color="#020b0f"/><stop offset="1" stop-color="#00273f"/></linearGradient><linearGradient id="New_Gradient_Swatch_2-2" x1="121.83" y1="111.62" x2="137.19" y2="111.62" xlink:href="#New_Gradient_Swatch_2"/></defs><g id="Layer_1-2"><rect class="cls-4" width="180" height="180"/><g><path class="cls-3" d="m84.86,136.01v-.18c.04-2.58-1.62-4.88-4.09-5.65-15.39-4.44-25.98-18.54-25.96-34.55,0-17.85,12.98-32.63,30.05-35.51v9.19c0,5.35,6.43,7.99,10.22,4.27l12.8-12.5c2.36-2.29,2.41-6.06.12-8.41-.04-.04-.08-.08-.12-.12l-12.8-12.8c-3.73-3.73-10.22-1.08-10.22,4.27v3.97c-23.68,2.94-42.06,23.14-42.06,47.65,0,21.87,14.6,40.32,34.67,46.15,3.73,1.08,7.39-1.92,7.39-5.77Z"/><path class="cls-5" d="m114.97,128.2c-1.83-1.86-4.68-2.28-6.97-1.02-2.22,1.26-4.57,2.22-6.97,2.94-2.46.72-4.15,3.06-4.15,5.65v.12c0,3.91,3.73,6.85,7.45,5.77,3.31-.96,6.49-2.28,9.55-3.97,3.43-1.86,3.97-6.61,1.2-9.37l-.12-.12Z"/><path class="cls-2" d="m125.42,85.41c.72,2.52,3.06,4.21,5.65,4.21h.12c3.91,0,6.91-3.73,5.77-7.45-.96-3.31-2.28-6.49-3.97-9.55-1.86-3.43-6.61-3.97-9.37-1.2l-.06.06c-1.86,1.86-2.28,4.69-1.02,6.97,1.2,2.22,2.16,4.57,2.88,6.97Z"/><path class="cls-1" d="m131.19,101.64h-.12c-2.64,0-4.93,1.68-5.65,4.21-.72,2.4-1.68,4.75-2.88,7.03-1.26,2.28-.78,5.17,1.02,6.97,2.76,2.76,7.51,2.22,9.37-1.2,1.68-3.06,3-6.25,4.03-9.55,1.08-3.73-1.86-7.45-5.77-7.45Z"/></g></g></svg>