<?xml version="1.0" encoding="UTF-8"?><svg id="Layer_2" xmlns="http://www.w3.org/2000/svg" xmlns:xlink="http://www.w3.org/1999/xlink" viewBox="0 0 180 180"><defs><style>.cls-1{fill:url(#New_Gradient_Swatch_2);}.cls-2{clip-path:url(#clippath);}.cls-3{fill:none;}</style><clipPath id="clippath"><rect class="cls-3" width="180" height="180"/></clipPath><linearGradient id="New_Gradient_Swatch_2" x1="35.53" y1="90" x2="144.47" y2="90" gradientUnits="userSpaceOnUse"><stop offset="0" stop-color="#020b0f"/><stop offset="1" stop-color="#00273f"/></linearGradient></defs><g id="Layer_1-2"><g class="cls-2"><path class="cls-1" d="m100.99,30h-54.55c-6,0-10.91,4.91-10.91,10.91v98.18c0,6,4.91,10.91,10.91,10.91h54.55c6,0,10.91-4.91,10.91-10.91V40.91c0-6-4.91-10.91-10.91-10.91Zm0,103.64h-54.55V46.36h54.55v87.27Zm36.16-64.04c-1.31-1.65-3.71-1.92-5.36-.61-.11.09-.22.18-.32.28l-.16.16c-1.36,1.36-1.42,3.55-.27,5.07,6.87,8.95,6.82,21.11-.11,30.38-1.15,1.53-1.04,3.65.27,5.02l.27.27c1.58,1.58,4.15,1.42,5.62-.27,9.82-11.62,9.82-28.31.05-40.31h0Zm-17.51,11.51l-.33.33c-1.09,1.09-1.42,2.73-.82,4.15,1.15,2.67,1.15,5.62,0,8.29-.6,1.42-.27,3.05.82,4.15l.44.44c1.75,1.75,4.75,1.36,5.95-.82,2.67-4.85,2.67-10.58-.05-15.6-.94-1.84-3.2-2.57-5.04-1.63-.35.18-.68.42-.96.7h0Z"/></g></g></svg>