<?xml version="1.0" encoding="UTF-8"?><svg id="Layer_2" xmlns="http://www.w3.org/2000/svg" xmlns:xlink="http://www.w3.org/1999/xlink" viewBox="0 0 180 180"><defs><style>.cls-1{fill:url(#New_Gradient_Swatch_2);}.cls-2{clip-path:url(#clippath);}.cls-3{fill:none;}</style><clipPath id="clippath"><rect class="cls-3" width="180" height="180"/></clipPath><linearGradient id="New_Gradient_Swatch_2" x1="30" y1="90" x2="150" y2="90" gradientUnits="userSpaceOnUse"><stop offset="0" stop-color="#020b0f"/><stop offset="1" stop-color="#00273f"/></linearGradient></defs><g id="Layer_1-2"><g class="cls-2"><path class="cls-1" d="m124.69,63.94l-3.75-8.33-8.33-3.75c-1.5-.68-2.16-2.45-1.47-3.94.3-.65.82-1.18,1.47-1.47l8.33-3.75,3.75-8.33c.68-1.5,2.45-2.16,3.94-1.47.65.3,1.18.82,1.47,1.47l3.75,8.33,8.33,3.75c1.5.68,2.16,2.45,1.47,3.94-.3.65-.82,1.18-1.47,1.47l-8.33,3.75-3.75,8.33c-1.01,2.32-4.34,2.32-5.42,0Zm19.28,28.15l-1.9-4.28c-.68-1.5-2.45-2.16-3.94-1.47-.65.3-1.18.82-1.47,1.47l-1.9,4.28-4.34,1.9c-1.5.68-2.16,2.45-1.47,3.94.3.65.82,1.18,1.47,1.47l4.28,1.9,1.9,4.34c.68,1.5,2.45,2.16,3.94,1.47.65-.3,1.18-.82,1.47-1.47l1.9-4.28,4.34-1.9c1.5-.68,2.16-2.45,1.47-3.94-.3-.65-.82-1.18-1.47-1.47l-4.28-1.96h0Zm-29.99,9.82l7.32,5.53c2.38,1.79,3.03,5.12,1.55,7.74l-9.64,16.66c-1.49,2.62-4.7,3.69-7.44,2.5l-8.51-3.57c-1.19.77-2.5,1.55-3.81,2.2l-1.13,9.16c-.36,2.98-2.92,5.24-5.89,5.24h-19.22c-2.98,0-5.53-2.26-5.89-5.24l-1.13-9.16c-1.31-.65-2.56-1.37-3.81-2.2l-8.51,3.57c-2.74,1.19-5.95.12-7.44-2.5l-9.64-16.66c-1.49-2.62-.83-5.89,1.55-7.74l7.32-5.53v-2.2c0-.71,0-1.49.06-2.2l-7.32-5.53c-2.38-1.79-3.03-5.12-1.55-7.74l9.64-16.66c1.49-2.62,4.7-3.69,7.44-2.5l8.51,3.57c1.19-.77,2.5-1.55,3.81-2.2l1.13-9.16c.3-2.92,2.86-5.18,5.83-5.18h19.22c2.98,0,5.53,2.26,5.89,5.24l1.13,9.16c1.31.65,2.56,1.37,3.81,2.2l8.51-3.57c2.74-1.19,5.95-.12,7.44,2.5l9.64,16.66c1.49,2.62.83,5.89-1.55,7.74l-7.32,5.53c.06.71.06,1.43.06,2.2s0,1.43-.06,2.14h0Zm-19.28-2.2c0-9.88-7.97-17.85-17.85-17.85s-17.85,7.97-17.85,17.85,7.97,17.85,17.85,17.85,17.85-7.97,17.85-17.85Z"/></g></g></svg>