<?xml version="1.0" encoding="UTF-8"?><svg id="Layer_2" xmlns="http://www.w3.org/2000/svg" xmlns:xlink="http://www.w3.org/1999/xlink" viewBox="0 0 180 180"><defs><style>.cls-1{fill:url(#New_Gradient_Swatch_2);}.cls-2{clip-path:url(#clippath);}.cls-3{fill:none;}</style><clipPath id="clippath"><rect class="cls-3" width="180" height="180"/></clipPath><linearGradient id="New_Gradient_Swatch_2" x1="30" y1="90" x2="150" y2="90" gradientUnits="userSpaceOnUse"><stop offset="0" stop-color="#020b0f"/><stop offset="1" stop-color="#00273f"/></linearGradient></defs><g id="Layer_1-2"><g class="cls-2"><path class="cls-1" d="m136.28,90c0-1.48-.06-2.89-.19-4.37l11.48-9.06c2.47-1.93,3.15-5.53,1.6-8.36l-11.54-20.77c-1.53-2.82-4.86-3.98-7.71-2.7l-13.27,5.85c-2.28-1.67-4.69-3.15-7.22-4.37l-1.79-14.85c-.37-3.21-3.02-5.66-6.11-5.66h-23.02c-3.15,0-5.8,2.44-6.17,5.66l-1.79,14.85c-2.53,1.22-4.94,2.7-7.22,4.37l-13.27-5.85c-2.84-1.29-6.17-.13-7.71,2.7l-11.54,20.83c-1.54,2.83-.86,6.36,1.6,8.36l11.48,9.06c-.26,2.89-.26,5.79,0,8.68l-11.48,9.06c-2.47,1.93-3.15,5.53-1.6,8.36l11.54,20.77c1.54,2.83,4.87,3.99,7.71,2.7l13.27-5.85c2.28,1.67,4.69,3.15,7.22,4.37l1.79,14.85c.37,3.21,3.02,5.66,6.11,5.66h23.02c3.09,0,5.74-2.44,6.11-5.66l1.79-14.85c2.53-1.22,4.94-2.7,7.22-4.37l13.27,5.85c2.84,1.29,6.17.13,7.71-2.7l11.54-20.77c1.54-2.83.86-6.36-1.6-8.36l-11.48-9.06c.19-1.48.25-2.89.25-4.37h0Zm-46.03,22.5c-11.91,0-21.6-10.09-21.6-22.5s9.69-22.5,21.6-22.5,21.6,10.09,21.6,22.5-9.69,22.5-21.6,22.5Z"/></g></g></svg>