<?xml version="1.0" encoding="UTF-8"?><svg id="Layer_2" xmlns="http://www.w3.org/2000/svg" xmlns:xlink="http://www.w3.org/1999/xlink" viewBox="0 0 180 180"><defs><style>.cls-1{fill:url(#New_Gradient_Swatch_2);}.cls-2{clip-path:url(#clippath);}.cls-3{fill:none;}</style><clipPath id="clippath"><rect class="cls-3" width="180" height="180"/></clipPath><linearGradient id="New_Gradient_Swatch_2" x1="30" y1="90" x2="150" y2="90" gradientUnits="userSpaceOnUse"><stop offset="0" stop-color="#020b0f"/><stop offset="1" stop-color="#00273f"/></linearGradient></defs><g id="Layer_1-2"><g class="cls-2"><path class="cls-1" d="m72,123.5c1.9,2.5,3,5.6,3,9,0,8.3-6.7,15-15,15s-15-6.7-15-15,6.7-15,15-15c2.2,0,4.25.45,6.15,1.3l7.05-8.85c-4.48-5.03-6.48-11.79-5.45-18.45l-10.15-3.4c-4.47,6.97-13.74,8.99-20.7,4.53-4.3-2.76-6.9-7.52-6.9-12.63,0-8.3,6.7-15,15-15s15,6.7,15,15c0,.35,0,.7-.05,1.05l10.15,3.4c3.26-6.17,9.22-10.46,16.1-11.6v-10.8c-6.59-1.76-11.19-7.73-11.2-14.55,0-8.3,6.7-15,15-15s15,6.7,15,15c0,7-4.8,12.85-11.25,14.55v10.8c7,1.15,12.9,5.55,16.1,11.6l10.15-3.4v-1.05c0-8.3,6.7-15,15-15s15,6.7,15,15-6.7,15-15,15c-5.3,0-9.9-2.75-12.6-6.85l-10.15,3.4c1.04,6.66-.96,13.43-5.45,18.45l7.05,8.85c1.9-.9,3.95-1.35,6.15-1.35,8.3,0,15,6.7,15,15s-6.7,15-15,15-15-6.7-15-15c0-3.4,1.1-6.5,3-9l-7.05-8.85c-6.75,3.75-15.05,3.8-21.85,0l-7.1,8.85Z"/></g></g></svg>