<svg width="200" height="200" viewBox="0 0 200 200" fill="none" xmlns="http://www.w3.org/2000/svg">
<path d="M88.9286 124.857H112.071C115.254 124.857 117.857 122.253 117.857 119.071V90.1423H127.056C132.206 90.1423 134.809 83.8937 131.164 80.2487L104.608 53.692C104.073 53.1557 103.437 52.7301 102.737 52.4398C102.037 52.1494 101.287 52 100.529 52C99.7712 52 99.0209 52.1494 98.321 52.4398C97.621 52.7301 96.9853 53.1557 96.45 53.692L69.8936 80.2487C66.2486 83.8937 68.7943 90.1423 73.9436 90.1423H83.1429V119.071C83.1429 122.253 85.7464 124.857 88.9286 124.857ZM65.7857 136.428H135.214C138.396 136.428 141 139.032 141 142.214C141 145.396 138.396 148 135.214 148H65.7857C62.6036 148 60 145.396 60 142.214C60 139.032 62.6036 136.428 65.7857 136.428Z" fill="url(#paint0_linear_352_92)"/>
<defs>
<linearGradient id="paint0_linear_352_92" x1="60" y1="110.881" x2="141" y2="89.1187" gradientUnits="userSpaceOnUse">
<stop stop-color="#020B0F"/>
<stop offset="1" stop-color="#0A484E"/>
</linearGradient>
</defs>
</svg>
