<?xml version="1.0" encoding="UTF-8"?>
<svg id="Layer_2" data-name="Layer 2" xmlns="http://www.w3.org/2000/svg" xmlns:xlink="http://www.w3.org/1999/xlink" viewBox="0 0 180 180">
  <defs>
    <style>
      .cls-1 {
        fill: none;
      }

      .cls-2 {
        fill: url(#New_Gradient_Swatch_2-2);
      }

      .cls-3 {
        fill: url(#New_Gradient_Swatch_2);
        opacity: .1;
      }

      .cls-4 {
        clip-path: url(#clippath);
      }
    </style>
    <clipPath id="clippath">
      <rect class="cls-1" width="180" height="180"/>
    </clipPath>
    <linearGradient id="New_Gradient_Swatch_2" data-name="New Gradient Swatch 2" x1="30" y1="90" x2="150" y2="90" gradientUnits="userSpaceOnUse">
      <stop offset="0" stop-color="#020b0f"/>
      <stop offset="1" stop-color="#00273f"/>
    </linearGradient>
    <linearGradient id="New_Gradient_Swatch_2-2" data-name="New Gradient Swatch 2" x1="42.5" x2="137.5" xlink:href="#New_Gradient_Swatch_2"/>
  </defs>
  <g id="Layer_1-2" data-name="Layer 1">
    <g class="cls-4">
      <circle class="cls-3" cx="90" cy="90" r="60"/>
      <path class="cls-2" d="M90,42.5c-26.22,0-47.5,21.28-47.5,47.5s21.28,47.5,47.5,47.5,47.5-21.28,47.5-47.5-21.28-47.5-47.5-47.5ZM112.04,74.8c-.71,7.5-3.8,25.75-5.37,34.15-.67,3.56-2,4.75-3.23,4.89-2.75.24-4.84-1.8-7.5-3.56-4.18-2.75-6.56-4.46-10.59-7.12-4.7-3.09-1.66-4.8,1.05-7.55.71-.71,12.87-11.78,13.11-12.78.07-.31-.02-.63-.24-.86-.29-.24-.67-.14-1-.1-.43.1-7.08,4.51-20.05,13.25-1.9,1.28-3.61,1.95-5.13,1.9-1.71-.05-4.94-.95-7.36-1.76-2.99-.95-5.32-1.47-5.13-3.13.09-.86,1.28-1.71,3.51-2.61,13.87-6.03,23.08-10.02,27.69-11.92,13.2-5.51,15.91-6.46,17.72-6.46.38,0,1.28.1,1.85.57.48.38.62.9.66,1.28-.05.29.05,1.14,0,1.81h0Z"/>
    </g>
  </g>
</svg>