<?xml version="1.0" encoding="UTF-8"?>
<svg xmlns="http://www.w3.org/2000/svg" xmlns:xlink="http://www.w3.org/1999/xlink" version="1.1" id="Layer_1" x="0px" y="0px" width="658.919px" height="147.567px" viewBox="0 0 658.919 147.567" xml:space="preserve">
<g>
	<g>
		<path fill="none" stroke="#B3282D" stroke-width="6" stroke-linejoin="round" stroke-miterlimit="10" d="M138.756,73.153    c0,35.379-28.682,64.061-64.061,64.061c-35.375,0-64.061-28.682-64.061-64.061c0-35.381,28.686-64.062,64.061-64.062    C110.074,9.091,138.756,37.772,138.756,73.153z"></path>
	</g>
	<path fill="#B3282D" d="M44.504,108.345h0.121c1.086,0,2.408-0.773,2.924-1.729l2.596-9.375c0.527-0.955,3.838-10.078,4.764-10.646   l0.158-0.1l2.285,16.705c0.299,1.043,1.344,1.904,2.328,1.904c0.977,0,1.723-0.896,1.65-1.975l-0.27-3.879   c-0.076-1.078,1.104-17.648,5.908-17.648c1.645,0,14.133,7.107,14.133,7.107c1.094,0.041,1.797,3.908,2.84,7.148l2.783,14.871   c0.096,1.078,0.975,1.969,1.947,1.969c0.977,0,1.896-0.879,2.049-1.951l0.768-19.359c0.148-1.084,1.096-2.279,2.115-2.666   l0.99-0.381c1.014-0.381,1.031,1.57,1.26,2.631l3.908,15.135c0.223,1.066,1.178,1.934,2.121,1.934c0.934,0,1.66-0.885,1.613-1.969   l-4.584-39.812c-0.047-1.088,0.178-2.762,0.51-3.719c0.328-0.961,3.336-5.867,4.4-6.078l6.299,0.51   c1.062-0.217,2.455-1.113,3.082-2.004l2.203-3.092c0.639-0.881,0.316-1.92-0.707-2.301l-9.785-2.957   c-1.016-0.375-1.941-3.234-6.758-3.533c-0.768,0.08-4.035,0.732-4.898,1.268c-2.912-4.533-3.885,0.973-7.119,4.209   c-2.916,4.209-1.752,3.811,4.635,3.014c-0.879,1.986-2.086,4.365-3.41,6.059c-3.486,4.43-7.137,3.84-8.824,4.811   c-1.412,0.82-16.957,0.623-21.99,2.414c-0.1,0.018-0.209,0.047-0.322,0.088c0,0-12.896-5.16-12.176-24.799   c0,0-1.295-0.971-3.562,6.471c0,0-0.117,2.971-3.51,1.904c-2.098-0.656,9.123,7.387,2.174,7.826c0,0,5.496,5.65,3.475,5.65   s12.166,5.518,9.873,6.572c-2.291,1.049-9.375,37.893-9.375,37.893C42.797,107.501,43.418,108.345,44.504,108.345z"></path>
	<g>
		<path fill="#B3282D" d="M172.631,121.042V47.681l-0.16-19.625l27.17,0.078c21.945-0.652,35.562,10.281,35.562,28.432    c0,15.359-11.805,26.145-27.287,28.939c5.838,15.357,16.881,23.355,29.662,22.494v13.072l0,0    c-25.449-0.064-42.734-17.033-46.166-46.229h6.984c12.186,0,21.322-6.604,21.322-18.277c0-10.408-7.359-16.119-20.561-16.119    l-11.297-0.193v80.789H172.631z"></path>
		<path fill="#B3282D" d="M306.311,120.884h-52.318V28.392h52.318v12.777h-37.197v25.18h34.859v12.652h-34.859v29.039h37.197    V120.884z"></path>
		<path fill="#B3282D" d="M398.936,73.753c0,15.268-4.236,26.939-12.715,35.014c-8.479,8.08-20.689,12.117-36.633,12.117h-25.875    V28.392h28.6c14.715,0,26.168,3.965,34.348,11.895C394.844,48.214,398.936,59.372,398.936,73.753z M382.992,74.257    c0-22.143-10.354-33.211-31.062-33.211h-13.094v67.123h10.752C371.859,108.169,382.992,96.866,382.992,74.257z"></path>
		<path fill="#B3282D" d="M442.975,120.884h-15.123V41.362h-27.199V28.392h69.527v12.971h-27.205V120.884z"></path>
		<path fill="#B3282D" d="M529.863,120.884l-9.234-25.682h-35.367l-9.047,25.682h-15.941l34.609-92.873h16.447l34.605,92.873    H529.863z M516.645,82.165l-8.666-25.176c-0.633-1.688-1.51-4.348-2.625-7.973c-1.125-3.625-1.887-6.283-2.309-7.971    c-1.143,5.186-2.807,10.859-5.002,17.018l-8.352,24.102H516.645z"></path>
		<path fill="#B3282D" d="M555.551,120.884V28.392h15.123v92.492H555.551z"></path>
		<path fill="#B3282D" d="M592.5,120.884V28.392h15.123v79.52h39.158v12.973H592.5z"></path>
	</g>
</g>
</svg>
