<?xml version="1.0" encoding="UTF-8"?>
<svg xmlns="http://www.w3.org/2000/svg" xmlns:xlink="http://www.w3.org/1999/xlink" width="627px" height="146px" viewBox="0 0 627 146" version="1.1">
  <title>Wealthbox</title>
  <g id="Page-1" stroke="none" stroke-width="1" fill="none" fill-rule="evenodd">
    <g id="Wealthbox" fill-rule="nonzero">
      <g id="Logotype" transform="translate(144.000000, 36.000000)" fill="#000000">
        <g id="Mask">
          <path d="M0,0 L17.304,0 L29.149,51.088 L41.2,0.412 L57.474,0.412 L70.04,51.088 L81.164,0 L97.644,0 L77.662,73.542 L62.727,73.542 L49.028,19.158 L35.741,73.542 L21.218,73.542 L0,0 Z M143.144,56.753 C142.183,62.796 139.762,67.379 135.882,70.504 C132.003,73.628 126.355,75.19 118.939,75.19 C110.012,75.19 103.3,72.718 98.803,67.774 C94.305,62.831 92.056,55.827 92.056,46.762 C92.056,42.231 92.708,38.196 94.013,34.66 C95.318,31.123 97.154,28.119 99.523,25.647 C101.892,23.175 104.725,21.304 108.021,20.034 C111.317,18.763 114.956,18.128 118.939,18.128 C127.179,18.128 133.376,20.497 137.53,25.235 C141.685,29.973 143.762,36.359 143.762,44.393 L143.762,50.162 L106.476,50.162 C106.613,54.487 107.712,57.87 109.772,60.308 C111.832,62.746 114.922,63.964 119.042,63.964 C124.741,63.964 128.106,61.561 129.136,56.754 L143.144,56.754 L143.144,56.753 Z M129.857,40.686 C129.857,36.978 128.947,34.093 127.128,32.034 C125.308,29.974 122.476,28.944 118.63,28.944 C116.708,28.944 115.025,29.253 113.583,29.871 C112.141,30.489 110.922,31.33 109.927,32.394 C108.931,33.458 108.158,34.694 107.609,36.102 C107.06,37.51 106.751,39.038 106.682,40.686 L129.857,40.686 L129.857,40.686 Z M183.507,66.744 C181.379,69.147 178.992,71.104 176.349,72.615 C173.705,74.125 170.289,74.881 166.1,74.881 C163.697,74.881 161.413,74.572 159.25,73.954 C157.087,73.336 155.199,72.375 153.585,71.07 C151.971,69.765 150.684,68.099 149.723,66.074 C148.762,64.049 148.281,61.629 148.281,58.812 C148.281,55.105 149.105,52.083 150.753,49.749 C152.401,47.415 154.564,45.595 157.242,44.29 C159.92,42.985 162.924,42.059 166.254,41.509 C169.585,40.959 172.966,40.616 176.4,40.479 L183.3,40.17 L183.3,37.492 C183.3,34.196 182.39,31.93 180.571,30.694 C178.752,29.458 176.605,28.84 174.133,28.84 C168.434,28.84 165.172,31.003 164.348,35.329 L151.164,34.093 C152.125,28.463 154.597,24.394 158.58,21.888 C162.562,19.382 167.918,18.128 174.647,18.128 C178.768,18.128 182.27,18.626 185.153,19.622 C188.038,20.618 190.355,22.042 192.106,23.896 C193.857,25.75 195.127,27.999 195.917,30.643 C196.707,33.287 197.103,36.256 197.103,39.552 L197.103,73.542 L183.506,73.542 L183.506,66.744 L183.507,66.744 Z M183.198,49.543 L176.812,49.852 C173.791,49.99 171.353,50.299 169.499,50.78 C167.645,51.26 166.22,51.861 165.225,52.583 C164.229,53.304 163.56,54.145 163.216,55.106 C162.873,56.067 162.701,57.131 162.701,58.298 C162.701,60.084 163.319,61.491 164.555,62.522 C165.791,63.551 167.508,64.067 169.705,64.067 C173.413,64.067 176.434,63.208 178.769,61.492 C180.074,60.53 181.138,59.311 181.961,57.835 C182.785,56.359 183.197,54.523 183.197,52.325 L183.197,49.543 L183.198,49.543 Z M204.463,0 L218.883,0 L218.883,73.542 L204.463,73.542 L204.463,0 Z M231.054,31.003 L222.609,31.003 L222.609,19.776 L231.054,19.776 L231.054,5.459 L245.474,5.459 L245.474,19.776 L257.834,19.776 L257.834,31.003 L245.474,31.003 L245.474,55.826 C245.474,58.641 246.058,60.547 247.225,61.543 C248.393,62.538 249.904,63.036 251.757,63.036 C252.719,63.036 253.697,62.984 254.693,62.881 C255.689,62.778 256.668,62.59 257.629,62.315 L259.689,72.924 C257.698,73.542 255.758,73.971 253.87,74.211 C251.982,74.451 250.18,74.572 248.463,74.572 C242.558,74.572 238.18,73.164 235.33,70.349 C232.48,67.533 231.056,62.795 231.056,56.134 L231.056,31.003 L231.054,31.003 Z M264.795,0 L279.215,0 L279.215,26.574 C281.344,23.69 283.816,21.561 286.631,20.188 C289.446,18.815 292.4,18.128 295.489,18.128 C301.6,18.128 306.133,19.725 309.085,22.918 C312.038,26.111 313.514,31.141 313.514,38.007 L313.514,73.542 L299.094,73.542 L299.094,39.964 C299.094,36.188 298.373,33.612 296.931,32.239 C295.49,30.865 293.567,30.179 291.163,30.179 C289.309,30.179 287.713,30.453 286.373,31.003 C285.034,31.552 283.781,32.342 282.614,33.372 C281.652,34.333 280.845,35.483 280.193,36.822 C279.541,38.162 279.214,39.621 279.214,41.2 L279.214,73.542 L264.794,73.542 L264.794,0 L264.795,0 Z M319.771,0 L334.191,0 L334.191,26.265 C338.242,20.84 343.735,18.128 350.67,18.128 C358.154,18.128 363.751,20.669 367.459,25.75 C371.167,30.831 373.021,37.801 373.021,46.659 C373.021,50.916 372.49,54.796 371.425,58.298 C370.36,61.8 368.816,64.805 366.79,67.311 C364.764,69.817 362.31,71.757 359.425,73.13 C356.541,74.504 353.279,75.19 349.64,75.19 C346.756,75.19 343.975,74.641 341.297,73.543 C338.619,72.445 336.112,70.453 333.778,67.569 L333.778,73.543 L319.77,73.543 L319.77,0 L319.771,0 Z M334.088,47.07 C334.088,50.573 334.38,53.371 334.964,55.465 C335.547,57.561 336.491,59.26 337.796,60.565 C339.169,61.8 340.56,62.608 341.968,62.985 C343.375,63.363 344.8,63.551 346.242,63.551 C347.821,63.551 349.332,63.242 350.774,62.624 C352.215,62.006 353.468,61.027 354.533,59.688 C355.598,58.349 356.439,56.615 357.056,54.486 C357.674,52.358 357.984,49.783 357.984,46.761 C357.984,43.603 357.692,40.958 357.108,38.83 C356.524,36.701 355.717,34.968 354.687,33.628 C353.658,32.289 352.439,31.328 351.031,30.744 C349.624,30.16 348.131,29.869 346.551,29.869 C344.766,29.869 343.221,30.109 341.916,30.59 C340.611,31.071 339.341,31.826 338.105,32.856 C336.731,34.161 335.718,35.809 335.066,37.8 C334.414,39.792 334.087,42.332 334.087,45.422 L334.087,47.07 L334.088,47.07 Z M404.248,75.189 C395.596,75.189 388.901,72.717 384.163,67.773 C379.425,62.83 377.056,55.757 377.056,46.556 C377.056,42.16 377.692,38.195 378.962,34.659 C380.232,31.122 382.052,28.136 384.421,25.698 C386.789,23.26 389.656,21.389 393.022,20.085 C396.386,18.78 400.128,18.128 404.249,18.128 C408.437,18.128 412.214,18.78 415.579,20.085 C418.943,21.39 421.81,23.261 424.18,25.698 C426.549,28.136 428.351,31.123 429.587,34.659 C430.823,38.195 431.441,42.16 431.441,46.556 C431.441,51.019 430.805,55.019 429.535,58.555 C428.265,62.091 426.445,65.095 424.076,67.568 C421.707,70.04 418.841,71.927 415.475,73.232 C412.11,74.537 408.368,75.189 404.248,75.189 Z M404.248,63.654 C408.368,63.654 411.44,62.177 413.467,59.224 C415.492,56.272 416.505,52.048 416.505,46.556 C416.505,41.062 415.492,36.873 413.467,33.99 C411.441,31.106 408.368,29.664 404.248,29.664 C400.128,29.664 397.055,31.106 395.029,33.99 C393.004,36.874 391.991,41.062 391.991,46.556 C391.991,52.118 392.986,56.358 394.978,59.276 C396.97,62.195 400.06,63.654 404.248,63.654 Z M447.263,45.938 L429.65,19.776 L446.644,19.776 L455.812,35.123 L466.112,19.776 L481.15,19.776 L463.743,45.114 L482.489,73.542 L465.802,73.542 L454.884,56.032 L443.451,73.542 L427.795,73.542 L447.263,45.938 Z" id="path-1_1_"></path>
        </g>
      </g>
      <g id="Logomark" fill="#106ED4">
        <g id="Mask_1_">
          <path d="M60.042,1.073 C61.281,0.358 62.662,0 64.045,0 C65.426,0 66.809,0.358 68.046,1.073 L124.085,33.405 C126.562,34.833 128.087,37.475 128.087,40.333 L128.087,104.996 C128.087,107.853 126.561,110.495 124.085,111.924 L68.047,144.258 C65.569,145.688 62.518,145.688 60.041,144.258 L4.003,111.924 C1.526,110.495 0,107.854 0,104.996 L0,40.333 C0,37.475 1.526,34.833 4.003,33.405 L60.042,1.073 Z M62.043,127.033 C62.661,127.389 63.353,127.568 64.044,127.568 C64.734,127.568 65.425,127.389 66.044,127.033 L110.074,101.63 C111.312,100.916 112.075,99.595 112.075,98.166 L112.075,47.364 C112.075,45.933 111.311,44.613 110.074,43.899 L66.044,18.498 C64.805,17.782 63.28,17.782 62.042,18.498 L18.012,43.899 C16.773,44.613 16.011,45.933 16.011,47.364 L16.011,98.166 C16.011,99.595 16.774,100.916 18.012,101.63 L62.043,127.033 Z M88.06,86.621 L88.06,40.428 L103.07,49.086 C103.69,49.444 104.071,50.104 104.071,50.819 L104.071,94.699 C104.071,95.416 103.69,96.074 103.07,96.432 L88.06,105.093 L64.045,91.236 L40.027,105.093 L25.017,96.432 C24.397,96.074 24.017,95.415 24.017,94.699 L24.017,50.819 C24.017,50.104 24.398,49.444 25.017,49.086 L40.027,40.428 L40.027,86.623 L64.045,72.765 L88.06,86.621 Z" id="path-3_1_"></path>
        </g>
      </g>
    </g>
  </g>
</svg>
